<svg width="60" height="75" viewBox="0 0 60 75" fill="none" xmlns="http://www.w3.org/2000/svg">
<path d="M45.5259 24.9873C45.0005 24.4567 44.1832 24.3584 43.58 24.7515C43.327 24.9087 43.113 25.1249 42.9184 25.3215C37.8396 30.4514 32.7607 35.5812 27.6819 40.7111C27.6041 40.7897 27.5262 40.8684 27.4679 40.9666C27.4095 40.8684 27.3316 40.7897 27.2538 40.7111C24.802 38.2346 22.1944 35.6009 19.2756 32.6527C19.0615 32.4365 18.8669 32.2399 18.614 32.0827C18.2637 31.8468 17.8551 31.7879 17.4464 31.8665C17.0378 31.9648 16.6681 32.2203 16.4345 32.5937C16.1232 33.0851 15.9481 33.8713 16.8821 34.8147C19.9177 37.9005 22.9728 40.9666 26.0279 44.0524C26.5533 44.5831 27.0008 44.8386 27.4679 44.8386C27.9154 44.8386 28.3824 44.5831 28.8884 44.0721C34.3369 38.5688 39.7855 33.0654 45.234 27.5621C45.3897 27.4049 45.5648 27.2083 45.7205 26.9725C46.1097 26.3239 46.0318 25.4984 45.5259 24.9873Z" fill="#2B616D"/>
<path d="M30.25 74.8707C29.7441 74.8707 29.2381 74.6938 28.7322 74.3204C26.8836 72.9445 24.9766 71.5687 23.1474 70.2322C19.995 67.9326 16.7454 65.574 13.593 63.1565C5.8872 57.2601 1.64512 49.4768 0.944591 39.9836C0.711082 36.7405 0.769459 33.4582 0.827836 30.2741C0.847295 29.3504 0.866755 28.3873 0.866755 27.4439H0.769459V22.9626C0.769459 19.7785 0.769459 16.4962 0.75 13.2531C0.75 12.0739 1.29485 11.268 2.38456 10.8749C11.1217 7.69087 20.1118 4.38887 29.0824 1.08688C29.8803 0.792062 30.6392 0.792062 31.4759 1.10654C38.7536 3.77958 48.3664 7.31743 58.0376 10.8356C59.2051 11.2484 59.7694 12.0739 59.75 13.3121C59.75 16.4962 59.75 19.7392 59.75 22.8643C59.75 27.5028 59.7694 32.2986 59.7305 36.996C59.6527 48.042 55.1382 56.9849 46.3427 63.5692C43.4627 65.7312 40.5049 67.8933 37.6444 69.9767C35.718 71.3918 33.7332 72.8462 31.7678 74.281C31.2619 74.6938 30.7559 74.8707 30.25 74.8707ZM3.68832 24.5153H3.80508V25.9894C3.80508 27.4439 3.78562 28.918 3.7467 30.3528C3.68832 33.4582 3.62995 36.6816 3.86346 39.787C4.48615 48.3761 8.35851 55.4518 15.3638 60.8176C18.4967 63.2154 21.7269 65.574 24.8793 67.8539C26.6501 69.1512 28.4792 70.468 30.2694 71.8045C32.157 70.4091 34.0834 68.9939 35.9515 67.6377C38.7925 65.5543 41.7503 63.412 44.6108 61.25C52.6279 55.2356 56.7533 47.0789 56.8117 37.0157C56.8506 32.3182 56.8311 27.5225 56.8311 22.9036C56.8311 19.8375 56.8311 16.6731 56.8311 13.548C47.2183 10.0494 37.7028 6.55089 30.464 3.89751C30.25 3.81889 30.2111 3.83854 30.0749 3.87785C21.2015 7.12088 12.3282 10.3836 3.66886 13.5283C3.68832 16.6731 3.68832 19.8768 3.68832 22.9626V24.5153Z" fill="#2B616D"/>
</svg>
