<svg width="77" height="78" viewBox="0 0 77 78" fill="none" xmlns="http://www.w3.org/2000/svg">
<path d="M8.92516 48.6456C10.169 54.9172 12.9105 60.2278 17.505 64.5522C21.6172 68.4213 26.4656 70.7479 32.1262 71.3042C32.6847 71.3548 33.0147 71.279 33.3193 70.7226C34.1316 69.2306 35.4769 68.4719 37.2031 68.396C38.2438 68.3455 39.2845 68.3455 40.3253 68.3708C42.8637 68.4213 44.8437 70.4444 44.8437 72.9227C44.8437 75.401 42.8637 77.3988 40.3253 77.4494C39.2845 77.4747 38.2438 77.4747 37.2031 77.4241C35.4262 77.323 34.1062 76.4884 33.2178 74.9458C33.0401 74.6423 32.6339 74.3389 32.3293 74.3136C19.9672 72.9227 12.1489 65.8419 7.5798 54.7149C7.19904 53.7539 6.91982 52.7424 6.64059 51.7561C6.36137 50.7698 6.15829 49.7583 5.95522 48.9491C4.8637 48.595 3.84834 48.418 2.98528 47.9375C1.53839 47.1536 0.853016 45.788 0.827632 44.1695C0.802248 40.1233 0.802248 36.1024 0.827632 32.0562C0.853016 29.5273 2.70606 27.656 5.24447 27.5042C5.47292 27.479 5.676 27.479 5.80292 27.4537C6.48829 25.3041 6.99597 23.1293 7.85903 21.1062C13.2151 8.79063 22.6072 1.65922 36.0354 0.420072C52.9158 -1.14783 68.0194 10.2321 71.4462 26.695C71.5731 27.3019 71.8016 27.5043 72.4108 27.5295C74.8984 27.656 76.7261 29.5526 76.7515 32.0309C76.7769 36.0771 76.7769 40.098 76.7515 44.1442C76.7261 46.7236 74.7208 48.6709 72.1316 48.6962C70.3293 48.7215 68.527 48.7467 66.7248 48.6709C65.9125 48.6456 65.5317 48.8732 65.1763 49.6318C62.3841 55.8782 57.9672 60.6071 51.8243 63.7429C37.1523 71.2031 18.9773 64.7292 12.4028 49.6571C12.0474 48.8226 11.6413 48.5697 10.8036 48.6456C10.1944 48.6962 9.58515 48.6456 8.92516 48.6456ZM52.4081 33.0172C50.6566 35.2932 48.4228 36.507 45.6052 36.507C42.7622 36.5323 40.5284 35.2426 38.7261 32.9919C36.9492 35.2679 34.69 36.4817 31.8978 36.507C29.0548 36.507 26.821 35.2426 25.0695 33.0425C21.5411 36.9622 17.5811 37.5439 13.1135 34.8885C11.7174 44.0683 15.9819 54.5379 25.2725 60.1519C33.9793 65.4373 46.2652 65.1844 55.0735 58.1288C62.6887 52.009 65.6079 41.8176 64.2625 34.9391C58.8557 37.4174 56.165 36.9875 52.4081 33.0172ZM38.7007 12.1034C36.6192 12.4322 34.4616 12.5586 32.4308 13.0897C23.2672 15.5933 17.1496 21.3844 14.0781 30.3619C13.8751 30.9688 13.8751 31.4746 14.4081 31.9551C15.8043 33.2448 17.4035 33.8264 19.2819 33.4218C21.7695 32.916 23.3941 30.9941 23.5718 28.4146C23.6226 27.6813 23.8256 27.0238 24.5618 26.872C25.0441 26.7709 25.7041 26.8973 26.0848 27.2008C26.4148 27.4537 26.5417 28.0859 26.5671 28.5411C26.8463 31.8792 30.0194 34.1805 33.2685 33.3206C35.6039 32.7137 37.0507 30.8929 37.2792 28.2882C37.3554 27.3019 37.9646 26.6697 38.8022 26.695C39.6145 26.7203 40.173 27.3272 40.2745 28.2629C40.2999 28.5158 40.2999 28.7687 40.3253 29.0216C40.7822 31.7527 43.1429 33.6241 45.9352 33.4977C48.6005 33.3712 50.7328 31.1964 50.9612 28.4652C51.012 27.9847 51.1897 27.3525 51.5451 27.0743C51.8751 26.7962 52.5604 26.7456 53.0173 26.872C53.7535 27.0743 53.9058 27.7571 53.9566 28.4652C54.1089 30.64 55.2004 32.2332 57.2057 33.0678C59.2111 33.9276 61.0895 33.5482 62.8156 32.1827C63.501 31.6263 63.7041 31.07 63.4248 30.1596C59.9472 19.5383 49.9966 12.2805 38.7007 12.1034ZM68.4763 27.479C66.1155 14.4806 53.6012 2.26615 37 3.27769C19.9926 4.28924 10.4482 17.8946 9.10285 27.479C9.63592 27.479 10.1944 27.4284 10.702 27.5042C11.6413 27.6307 12.0474 27.2261 12.4282 26.3916C19.6626 10.0551 40.1222 4.23866 54.9212 14.2783C59.5664 17.4394 62.9933 21.5867 65.2525 26.7203C65.3794 27.0238 65.7348 27.4284 66.0394 27.4537C66.8009 27.5548 67.5878 27.479 68.4763 27.479ZM10.9305 30.4883C8.92516 30.4883 7.02135 30.4377 5.14293 30.5136C4.27987 30.5389 3.77219 31.1711 3.77219 32.0309C3.7468 36.0518 3.7468 40.098 3.77219 44.1189C3.77219 44.9534 4.25449 45.5857 5.06678 45.611C6.99597 45.6868 8.89978 45.6362 10.9559 45.6362C9.53438 40.5532 9.55976 35.5461 10.9305 30.4883ZM66.8771 45.6362C68.6286 45.6362 70.5324 45.6868 72.4108 45.611C73.1469 45.5857 73.7054 45.0546 73.7054 44.3212C73.7562 40.1486 73.7562 36.0012 73.7054 31.8286C73.7054 31.0447 73.1469 30.5136 72.36 30.4883C70.4562 30.4377 68.5778 30.463 66.8263 30.463C67.1055 33.0172 67.5624 35.5208 67.5624 38.0243C67.5624 40.5279 67.1309 43.0315 66.8771 45.6362ZM38.7261 71.4054V71.3801C38.2184 71.3801 37.7107 71.3548 37.2031 71.3801C36.3146 71.4307 35.7054 72.0376 35.68 72.8721C35.6546 73.7067 36.2638 74.3895 37.1269 74.4148C38.193 74.4653 39.2845 74.44 40.3507 74.3895C41.1884 74.3389 41.7722 73.6814 41.7468 72.8974C41.7468 72.1135 41.163 71.4813 40.2999 71.4307C39.7922 71.3801 39.2592 71.4054 38.7261 71.4054Z" fill="#2B616D"/>
<path d="M38.8006 56.232C32.683 56.0044 28.2408 52.0088 27.4285 45.9648C27.4031 45.7119 27.3777 45.459 27.3777 45.2061C27.3524 44.0934 27.9362 43.3854 28.85 43.3854C29.7131 43.3854 30.3223 44.0429 30.3477 45.105C30.4238 46.8499 30.9569 48.4431 31.9977 49.8593C34.1553 52.7422 37.7091 53.8801 41.2121 52.818C44.512 51.8065 46.9489 48.696 47.1012 45.2314C47.152 44.0429 47.7612 43.3348 48.675 43.3854C49.6142 43.4359 50.1473 44.1693 50.0965 45.3579C49.9188 51.3766 44.6389 56.4343 38.8006 56.232Z" fill="#2B616D"/>
</svg>
