<svg width="83" height="62" viewBox="0 0 83 62" fill="none" xmlns="http://www.w3.org/2000/svg">
<path d="M12.2895 21.3255C11.4926 20.086 10.5682 18.91 9.9625 17.6388C6.48789 10.3924 11.3332 1.55694 19.3025 0.50813C21.9483 0.158525 24.4347 0.603477 26.7936 1.8112C27.9412 2.41506 28.3237 3.08249 27.9093 3.87705C27.4949 4.70338 26.7299 4.79873 25.5185 4.19487C23.4465 3.11427 21.247 2.79645 18.9519 3.33675C13.979 4.51269 10.8869 9.12111 11.6839 14.0791C12.4489 18.91 16.7842 22.3107 21.757 21.9929C22.3627 21.9611 22.9684 21.834 23.574 21.7069C24.4985 21.548 25.2316 21.8976 25.391 22.6921C25.5504 23.4867 25.1041 24.1541 24.2116 24.3448C21.2789 25.0758 18.4418 24.8215 15.7004 23.4549C15.3497 23.296 14.8078 23.2642 14.4572 23.4231C7.63546 26.3789 3.96959 31.6229 3.45956 38.9964C3.30017 41.4436 3.42768 43.8909 3.42768 46.4017H15.7641C17.103 36.867 22.1077 30.002 30.7464 25.7114C24.3072 18.9418 25.8054 9.05755 31.7346 3.94061C37.2175 -0.794942 45.888 -0.731377 51.339 4.03596C57.2044 9.18468 58.6389 18.9418 52.1997 25.7432C56.3437 27.6819 59.7546 30.447 62.4004 34.1337C65.0462 37.7887 66.6082 41.8886 67.1501 46.4017H79.5503C79.5503 45.5118 79.5503 44.6536 79.5503 43.7955C79.5184 41.1258 79.7416 38.4561 79.104 35.8182C77.6377 29.9067 74.0993 25.775 68.4889 23.4231C68.1702 23.296 67.6283 23.3278 67.3095 23.4867C64.6318 24.7898 61.8585 25.1076 58.9577 24.4084C57.8738 24.1541 57.3638 23.5185 57.587 22.6603C57.7782 21.8658 58.5114 21.548 59.5952 21.8022C63.0061 22.5014 66.0663 21.8022 68.5527 19.3232C71.2941 16.6217 72.0911 13.3164 70.9116 9.69319C69.7321 6.07002 67.1182 3.90883 63.3248 3.2414C61.2528 2.86001 59.3083 3.2414 57.4594 4.19487C56.2481 4.83051 55.4831 4.73517 55.0368 3.90883C54.6224 3.11427 55.0049 2.41506 56.1844 1.77942C62.3048 -1.36702 69.5409 0.921298 72.7605 7.02349C72.888 7.27774 73.2705 7.81804 73.7168 10.1699C74.4818 14.1427 73.3343 18.2744 70.5291 21.1984C70.4972 21.2301 70.4972 21.2301 70.4653 21.2619C73.398 22.6603 75.8844 24.5673 77.8608 27.0463C80.6341 30.5741 82.1324 34.5787 82.2599 39.06C82.3236 41.825 82.2917 44.6219 82.2917 47.3869C82.2917 48.69 81.8455 49.1667 80.5385 49.1667C76.4901 49.1667 72.4098 49.1667 68.3614 49.1667C68.0745 49.1667 67.7876 49.1667 67.4051 49.1667C67.4051 49.4845 67.3732 49.7706 67.3732 50.0248C67.3732 53.2031 67.3732 56.3813 67.3732 59.5595C67.3732 60.5448 66.5444 61.3711 65.5562 61.3711C49.5539 61.3711 33.5197 61.3711 17.5174 61.3711C16.1785 61.3711 15.7323 60.9261 15.7323 59.5595C15.7323 56.4131 15.7323 53.2666 15.7323 50.1202C15.7323 49.8341 15.7323 49.5481 15.7323 49.1985C15.3497 49.1985 15.0628 49.1985 14.7759 49.1985C10.8232 49.1985 6.87041 49.1985 2.91765 49.1985C1.06877 49.1985 0.75 48.8807 0.75 47.0055C0.75 44.8126 0.75 42.6196 0.75 40.4266C0.813754 31.909 4.5115 25.5843 12.0983 21.5162C12.1301 21.4208 12.2577 21.3573 12.2895 21.3255ZM64.5681 58.6378C64.5681 55.3643 64.6956 52.1225 64.5362 48.9125C64.0899 39.1235 59.3721 32.1314 50.4465 27.9998C49.9364 27.7455 49.522 27.7773 49.0758 28.0633C47.2906 29.2075 45.3461 29.8431 43.2741 30.0974C39.8951 30.5106 36.7393 29.8431 33.8066 28.0951C33.5197 27.9362 33.0734 27.8091 32.8184 27.9044C29.8538 29.0804 27.208 30.7966 24.9766 33.0849C20.5138 37.6933 18.3462 43.2234 18.3462 49.6117C18.3462 52.3767 18.3462 55.11 18.3462 57.875C18.3462 58.1293 18.3462 58.3836 18.3462 58.6696C33.7747 58.6378 49.1076 58.6378 64.5681 58.6378ZM41.489 27.4912C48.2151 27.4595 53.6979 21.9929 53.7298 15.3186C53.7617 8.6126 48.1832 3.08249 41.4571 3.08249C34.731 3.08249 29.1844 8.64438 29.2163 15.3504C29.28 22.0247 34.7948 27.523 41.489 27.4912Z" fill="#2B616D"/>
</svg>
