<svg width="76" height="78" viewBox="0 0 76 78" fill="none" xmlns="http://www.w3.org/2000/svg">
<path d="M1.77278 77.1191C0.990654 76.6601 0.75 75.9616 0.75 75.0636C0.770055 67.44 0.770055 59.8164 0.770055 52.2128C0.770055 50.7959 1.31153 50.257 2.71534 50.257C5.32243 50.257 7.92952 50.2371 10.5166 50.277C11.3187 50.297 12.0006 50.0774 12.7025 49.7182C14.4472 48.8201 16.2321 47.962 18.0571 47.2036C19.12 46.7646 20.2831 46.565 21.4262 46.2457C21.3661 46.0062 21.3059 45.7667 21.2457 45.5272C19.7416 39.7996 19.9823 34.1118 22.1281 28.6037C27.4827 14.8733 42.1024 7.80855 56.281 12.0793C61.2345 13.5761 65.4058 16.3102 68.8351 20.1619C69.4969 20.9003 69.4969 21.6986 68.9154 22.2973C68.2335 22.9958 67.2909 22.896 66.4487 21.998C59.1689 14.1748 48.7405 11.76 38.8135 15.5718C27.0214 20.102 20.5438 33.6129 24.3542 45.6071C24.4946 46.0461 24.6751 46.2656 25.1564 46.3056C27.4025 46.5051 29.4881 47.2435 31.5738 48.0219C32.0752 48.2015 32.6367 48.3412 33.1581 48.3412C36.5273 48.3811 39.9165 48.2613 43.2857 48.441C47.9784 48.6804 50.8462 53.7695 48.8007 58.0003C48.6803 58.2398 48.5801 58.4793 48.3996 58.8385C48.8809 58.7188 49.2419 58.639 49.6028 58.5392C55.4989 56.8628 61.3749 55.2064 67.2508 53.53C67.4714 53.4701 67.692 53.2905 67.8324 53.1109C71.362 48.3212 73.0065 42.9528 72.6856 37.0056C72.6255 35.8481 72.4049 34.6906 72.2645 33.5331C72.1642 32.7149 72.6656 32.0164 73.4276 31.8567C74.2699 31.6971 74.9718 32.1361 75.1924 32.9543C75.2325 33.114 75.2726 33.2936 75.3128 33.4732C76.516 40.4781 75.2325 47.024 71.5024 53.0909C71.342 53.3504 71.1615 53.6298 71.001 53.8692C71.1013 53.9491 71.1214 53.989 71.1815 54.0089C73.6683 55.2862 74.9919 57.3218 74.8315 60.0958C74.651 63.0495 73.0065 64.9853 70.1587 65.9632C63.4806 68.2582 56.7824 70.5134 50.1243 72.8882C45.9529 74.385 41.7214 75.2033 37.3094 74.6644C31.0123 73.9061 24.7352 72.9481 18.4381 72.1099C16.8137 71.8904 15.1893 71.8704 13.4846 71.7707C13.4846 73.0279 13.4445 74.0657 13.5047 75.1035C13.5648 76.0215 13.264 76.7 12.4217 77.1191C8.89214 77.1191 5.34249 77.1191 1.77278 77.1191ZM13.8657 68.8569C18.4582 68.7172 22.9103 69.7949 27.4225 70.3337C30.8519 70.7329 34.2611 71.3116 37.6905 71.6908C41.7014 72.1299 45.5318 71.3316 49.302 69.9945C55.9601 67.6196 62.6583 65.3844 69.3365 63.0694C71.0612 62.4707 72.084 60.9739 71.8433 59.3774C71.5225 57.2021 69.5371 55.9448 67.3511 56.5634C64.363 57.4016 61.3949 58.2598 58.4268 59.1179C55.5791 59.9362 52.7113 60.7544 49.8435 61.5527C49.4625 61.6525 49.0614 61.7323 48.6603 61.7323C43.2255 61.7523 37.7907 61.7323 32.3559 61.7323C31.3532 61.7323 30.7516 61.3132 30.5911 60.5548C30.3906 59.537 31.0725 58.7388 32.2156 58.7388C34.4617 58.7188 36.7278 58.7388 38.9739 58.7388C40.2574 58.7388 41.5209 58.7587 42.8044 58.7388C44.8098 58.6988 46.4342 57.1023 46.4944 55.1265C46.5546 53.2107 45.0505 51.4545 43.0651 51.3746C39.9967 51.2748 36.9083 51.2948 33.84 51.3347C32.4963 51.3547 31.2329 51.1751 29.9895 50.6163C25.2165 48.4809 20.5238 48.7403 15.9513 51.2748C15.1492 51.7139 14.0662 52.0132 13.625 52.6918C13.2239 53.3105 13.5047 54.3682 13.5047 55.2463C13.5047 59.4772 13.5047 63.708 13.5047 67.9389C13.5047 68.1984 13.5047 68.4778 13.5047 68.7571C13.6852 68.837 13.7654 68.8569 13.8657 68.8569ZM9.55394 53.2306C7.66881 53.2306 5.76363 53.2306 3.81834 53.2306C3.81834 60.2156 3.81834 67.1207 3.81834 74.0857C6.02434 74.0857 8.21029 74.0857 10.4564 74.0857C10.4564 67.1606 10.4564 60.2355 10.4564 53.2306C10.1355 53.2306 9.8347 53.2306 9.55394 53.2306Z" fill="#2B616D"/>
<path d="M53.1101 34.5709C53.1101 32.9743 53.0098 31.3778 53.1302 29.8012C53.3106 27.3664 55.1155 25.3907 57.5221 24.9716C58.5649 24.792 59.6679 24.8319 60.7308 24.8319C63.6989 24.8718 66.1255 27.2467 66.1856 30.2003C66.2257 33.114 66.2257 36.0278 66.1856 38.9415C66.1455 41.3962 64.461 43.5316 62.0544 44.0904C60.9915 44.3299 59.8685 44.3299 58.7855 44.3099C55.3562 44.2301 53.1101 41.935 53.0499 38.5224C53.0299 37.2052 53.0499 35.8881 53.0499 34.5709C53.07 34.5709 53.09 34.5709 53.1101 34.5709ZM63.1975 30.5795C63.1975 28.8433 62.1547 27.8254 60.3899 27.8055C59.8083 27.8055 59.2468 27.7855 58.6652 27.8055C57.2012 27.8454 56.1584 28.8033 56.0782 30.2802C56.018 31.3778 56.0581 32.4754 56.0581 33.5531C56.0581 35.1896 56.0381 36.826 56.0581 38.4825C56.0782 40.2985 57.0608 41.2964 58.8858 41.3363C59.5075 41.3563 60.1292 41.3563 60.7509 41.3164C62.2148 41.1966 63.1775 40.1788 63.1975 38.7219C63.2176 37.325 63.1975 35.928 63.1975 34.5509C63.1975 33.2138 63.1975 31.8967 63.1975 30.5795Z" fill="#2B616D"/>
<path d="M47.1157 44.5097C47.617 44.1504 48.0783 43.9309 48.3992 43.5517C48.7802 43.0927 48.72 42.514 48.3791 42.015C48.2588 41.8354 48.0984 41.6758 47.9379 41.5161C42.8641 36.467 37.7903 31.4179 32.7165 26.3887C32.3956 26.0694 31.8943 25.81 31.4531 25.7102C30.8715 25.5905 30.3902 25.9098 30.0894 26.4286C29.7886 26.9475 29.8287 27.4864 30.1696 27.9853C30.31 28.1849 30.4905 28.3645 30.671 28.5441C35.7046 33.5533 40.7383 38.5824 45.7921 43.5717C46.113 43.9309 46.5742 44.1504 47.1157 44.5097Z" fill="#2B616D"/>
<path d="M40.7188 29.4017C40.7188 27.0668 42.644 25.1309 45.0104 25.111C47.3969 25.091 49.3823 27.0468 49.3622 29.4217C49.3422 31.7766 47.417 33.6725 45.0305 33.6725C42.664 33.6725 40.7188 31.7567 40.7188 29.4017ZM45.0104 30.679C45.7123 30.6989 46.314 30.1401 46.3541 29.4416C46.3942 28.7232 45.7725 28.1045 45.0505 28.1045C44.3486 28.1045 43.767 28.6833 43.747 29.3818C43.7269 30.0803 44.3085 30.659 45.0104 30.679Z" fill="#2B616D"/>
<path d="M33.4977 36.547C35.8641 36.5271 37.8094 38.423 37.8294 40.7779C37.8495 43.1727 35.9243 45.1285 33.5378 45.1285C31.1713 45.1285 29.2461 43.2127 29.2461 40.8577C29.2461 38.4829 31.1312 36.567 33.4977 36.547ZM34.8213 40.8777C34.8413 40.1592 34.2998 39.5805 33.5979 39.5605C32.8559 39.5206 32.2543 40.0994 32.2543 40.8378C32.2543 41.5363 32.8359 42.135 33.5177 42.135C34.2196 42.1549 34.8213 41.5762 34.8213 40.8777Z" fill="#2B616D"/>
<path d="M64.084 10.8221C64.4049 11.2212 64.6656 11.7002 65.0867 11.9796C65.5881 12.3188 66.2699 12.259 66.671 11.8C67.7941 10.5227 68.877 9.22551 69.9199 7.88839C70.3611 7.30964 70.1405 6.47145 69.5789 6.01244C69.0174 5.55343 68.1551 5.51352 67.6537 6.05235C66.5306 7.3296 65.4677 8.64676 64.4049 9.96392C64.2645 10.1435 64.2444 10.4229 64.1843 10.6624C64.1642 10.7223 64.1241 10.7622 64.084 10.8221Z" fill="#2B616D"/>
<path d="M28.8877 12.1593C30.3115 12.1394 31.0536 10.8422 30.3516 9.90419C29.369 8.58703 28.286 7.32974 27.2031 6.09241C26.6817 5.51365 25.8193 5.53361 25.2377 6.03254C24.6562 6.5115 24.4957 7.36965 24.977 7.98832C25.9798 9.26556 27.0226 10.5029 28.0855 11.7203C28.3061 11.9997 28.7473 12.0795 28.8877 12.1593Z" fill="#2B616D"/>
<path d="M49.5442 4.15637C49.5442 3.47784 49.5643 2.81926 49.5442 2.14072C49.5041 1.24266 48.8623 0.604033 48.02 0.62399C47.2179 0.643947 46.5761 1.26261 46.5561 2.12076C46.536 3.49779 46.536 4.85487 46.5561 6.2319C46.5761 7.11001 47.2179 7.68876 48.0401 7.68876C48.9025 7.68876 49.5241 7.09005 49.5442 6.17203C49.5643 5.49349 49.5442 4.83491 49.5442 4.15637Z" fill="#2B616D"/>
<path d="M53.5062 34.758C53.5215 35.3806 54.0251 35.8666 54.6508 35.8514C55.2764 35.8362 55.7648 35.3502 55.7648 34.7276C55.7648 34.0898 55.2154 33.5583 54.5897 33.5886C53.964 33.619 53.491 34.1353 53.5062 34.758Z" fill="#2B616D"/>
</svg>
