<svg width="75" height="74" viewBox="0 0 75 74" fill="none" xmlns="http://www.w3.org/2000/svg">
<path d="M45.4869 23.4215C50.2079 23.4215 54.8063 23.4215 59.5068 23.4215C59.5068 23.156 59.5068 22.8907 59.5068 22.6252C59.5068 18.1341 59.5068 13.6633 59.5068 9.17215C59.5068 8.84553 59.4865 8.39641 59.6703 8.23309C60.0178 7.92687 60.5287 7.55941 60.9171 7.62066C61.3053 7.68189 61.7754 8.19226 61.898 8.60055C62.0206 9.02925 62.1842 9.2334 62.5519 9.41713C66.0263 11.1319 69.4802 12.8672 72.9341 14.6024C73.0771 14.6636 73.1998 14.7453 73.3428 14.8065C73.8741 15.0515 74.2217 15.4394 74.1807 16.0519C74.1398 16.6642 73.7719 16.9909 73.2201 17.2155C70.175 18.42 67.1299 19.6448 64.0644 20.8696C63.7987 20.9717 63.5535 21.0737 63.2877 21.1758C61.8366 21.7679 61.8366 21.7679 62.0206 23.4623C62.7972 23.4623 63.5738 23.4623 64.3505 23.4623C65.9241 23.4623 67.5183 23.4623 69.0919 23.4623C72.1166 23.4827 74.2012 25.5446 74.2012 28.5659C74.2012 41.8965 74.2012 55.2067 74.2012 68.5374C74.2012 71.5383 72.0961 73.6001 69.0714 73.6206C55.3376 73.6206 41.5834 73.6206 27.8497 73.6206C20.8193 73.6206 13.7685 73.6206 6.73809 73.6206C3.03896 73.5797 0.75 71.3137 0.75 67.6391C0.75 52.1853 0.75 36.7112 0.75 21.2575C0.75 17.542 3.48858 14.7862 7.08552 14.8882C10.2737 14.9698 12.8897 17.5829 12.9714 20.7676C12.9919 21.625 12.9714 22.4823 12.9714 23.401C14.3816 23.401 15.7304 23.401 17.0384 23.401C13.748 14.7657 15.3625 7.49816 23.3944 2.39456C28.9737 -1.15756 36.2085 -0.422635 41.3382 3.74191C44.2607 6.10999 46.1205 9.13133 46.9175 12.8059C47.6942 16.4601 47.1833 19.9714 45.4869 23.4215ZM12.9919 25.8916C12.9919 28.5862 12.9919 31.1789 12.9919 33.7715C12.9919 42.509 12.9919 51.2463 12.9919 59.9837C12.9919 62.5967 11.2751 64.6381 8.74093 64.9648C7.96432 65.0669 7.16727 65.0056 6.37023 65.026C4.55132 65.0465 3.20246 66.3325 3.18202 68.0474C3.16158 69.803 4.51044 71.1299 6.37023 71.1299C27.2775 71.1299 48.1846 71.1299 69.0919 71.1299C70.7064 71.1299 71.7283 70.1297 71.7283 68.517C71.7283 55.1863 71.7283 41.8761 71.7283 28.5455C71.7283 26.8715 70.7473 25.8916 69.051 25.8916C66.8847 25.8916 64.7184 25.8916 62.5519 25.8916C62.3681 25.8916 62.1637 25.9325 61.9798 25.9528C61.9798 27.586 61.9798 29.1375 61.9798 30.7911C62.2864 30.7911 62.5519 30.7911 62.8381 30.7911C64.657 30.8114 65.6176 31.7506 65.6176 33.5674C65.6176 34.6698 65.6176 35.7517 65.6176 36.8338C66.5576 37.1603 66.9255 37.6095 66.8233 38.3036C66.7211 39.0385 66.2512 39.3446 65.2293 39.3446C64.4322 39.3446 63.6556 39.3243 62.8585 39.3651C62.5519 39.3855 62.2045 39.4672 61.9593 39.6509C58.015 42.5293 54.0705 45.4282 50.1262 48.3271C49.9013 48.4903 49.7174 48.8374 49.7174 49.1232C49.6153 51.2259 48.0416 52.8183 45.9979 52.7978C43.9746 52.7774 42.4214 51.1646 42.3396 49.062C42.3396 48.7762 42.1557 48.4088 41.9513 48.2659C39.315 46.3469 36.6786 44.4278 34.0012 42.5498C33.8173 42.4273 33.4291 42.4069 33.2247 42.5293C31.9984 43.1622 30.7722 43.2439 29.5664 42.5702C29.1577 42.3456 28.9328 42.4681 28.6263 42.7131C26.4803 44.3666 24.3345 45.9998 22.2091 47.6534C20.6354 48.8579 19.0618 50.0827 17.488 51.2872C17.0589 51.6138 16.5274 51.8383 16.0983 51.4504C15.7713 51.1646 15.4852 50.6747 15.4647 50.2664C15.4647 49.9194 15.8326 49.5111 16.1392 49.2661C19.8179 46.4081 23.5374 43.5909 27.2161 40.7329C27.441 40.5491 27.6862 40.1817 27.6657 39.9163C27.5022 37.6707 29.035 35.8131 31.1605 35.7314C33.3677 35.6497 35.0844 37.4053 34.9618 39.6509C34.9414 40.1 35.0844 40.345 35.4318 40.59C36.5355 41.3657 37.6186 42.1619 38.7222 42.9581C40.3368 44.1217 41.9308 45.2649 43.5454 46.4286C45.2417 45.1832 46.8972 45.2241 48.532 46.4898C51.6794 44.1625 54.8267 41.8556 57.974 39.5489C57.177 39.406 56.4413 39.4263 55.726 39.3855C55.1129 39.3651 54.7245 39.0181 54.602 38.426C54.4793 37.8136 54.7245 37.3237 55.3173 37.0583C55.4808 36.997 55.6238 36.9358 55.8077 36.8541C55.8077 36.2621 55.8077 35.7109 55.8077 35.1394C55.8077 34.5473 55.8077 33.9757 55.8077 33.3836C55.8282 31.873 56.8296 30.8728 58.3624 30.8319C58.7098 30.8319 59.0572 30.8319 59.4456 30.8319C59.4456 29.1579 59.4456 27.586 59.4456 25.9325C59.139 25.9325 58.8937 25.9325 58.6485 25.9325C53.9888 25.9325 49.3087 25.9325 44.6491 25.912C44.1176 25.912 43.7702 26.0549 43.4228 26.4632C40.3572 29.9541 36.4946 31.873 31.8554 32.0159C26.7869 32.1588 22.5769 30.2194 19.2252 26.4428C19.0208 26.2181 18.7142 25.9528 18.4486 25.9528C16.6706 25.8711 14.8926 25.8916 12.9919 25.8916ZM44.8126 16.1743C44.8329 8.72303 38.8244 2.68036 31.3853 2.65995C23.9871 2.63953 17.9172 8.62096 17.8967 16.011C17.8559 23.4623 23.844 29.5254 31.2831 29.5662C38.7222 29.5866 44.7921 23.5847 44.8126 16.1743ZM3.20246 63.495C4.63307 62.5559 6.10454 62.5559 7.59645 62.5559C9.68104 62.5763 10.5598 61.678 10.5598 59.5754C10.5598 46.898 10.5598 34.2002 10.5598 21.5229C10.5598 21.278 10.5598 21.0125 10.5598 20.7676C10.3963 18.4812 8.1687 16.8685 5.94104 17.4604C4.20388 17.9095 3.20246 19.3181 3.20246 21.2983C3.20246 35.078 3.20246 48.8579 3.20246 62.6376C3.20246 62.8622 3.20246 63.0866 3.20246 63.495ZM69.9911 15.8476C67.2526 14.4799 64.657 13.1733 61.9798 11.8464C61.9798 14.3166 61.9798 16.6234 61.9798 19.0323C64.6162 17.9912 67.2117 16.95 69.9911 15.8476ZM58.3215 33.2612C58.3215 34.4657 58.3215 35.6497 58.3215 36.8338C59.9564 36.8338 61.5301 36.8338 63.1242 36.8338C63.1242 35.6088 63.1242 34.4248 63.1242 33.2612C61.4892 33.2612 59.936 33.2612 58.3215 33.2612ZM32.5707 39.406C32.6116 38.7527 32.0801 38.181 31.4262 38.1198C30.7517 38.079 30.1386 38.6302 30.1182 39.3039C30.0977 39.9571 30.6292 40.5288 31.3036 40.5491C31.978 40.5696 32.5297 40.0592 32.5707 39.406ZM46.0797 50.3481C46.7337 50.3277 47.2854 49.7765 47.265 49.1232C47.265 48.4291 46.6723 47.878 45.9775 47.9187C45.3235 47.9596 44.7921 48.5312 44.8329 49.1845C44.8534 49.8174 45.4052 50.3481 46.0797 50.3481Z" fill="#2B616D"/>
<path d="M59.5078 2.02684C59.5078 0.781565 59.8961 0.209961 60.7339 0.209961C61.5719 0.209961 61.9602 0.801981 61.9602 2.02684C61.9602 3.33337 61.5719 3.90497 60.6931 3.86415C59.8552 3.84373 59.5078 3.31296 59.5078 2.02684Z" fill="#2B616D"/>
<path d="M66.7419 3.08887C66.9053 3.21135 67.3754 3.37467 67.5184 3.7013C67.6819 4.04835 67.6819 4.61995 67.498 4.94658C67.2118 5.43652 66.7622 5.86523 66.2718 6.15103C65.9652 6.33476 65.393 6.35518 65.0864 6.17145C64.7798 6.00813 64.5142 5.51818 64.4529 5.15072C64.3302 4.43622 65.72 3.10928 66.7419 3.08887Z" fill="#2B616D"/>
<path d="M54.7234 3.08887C55.7453 3.10928 57.0532 4.41581 57.0532 5.17114C57.0532 6.08979 56.0313 6.72264 55.2752 6.23269C54.7643 5.88564 54.2738 5.41611 53.9468 4.90575C53.7629 4.61995 53.7834 4.04835 53.9468 3.72172C54.1103 3.37467 54.5599 3.19094 54.7234 3.08887Z" fill="#2B616D"/>
<path d="M17.875 56.2073C17.9772 56.0644 18.1612 55.6562 18.4473 55.4519C19.6122 54.615 20.8179 53.8596 22.0033 53.0635C22.5348 52.7165 23.0457 52.7165 23.5566 53.0635C24.3332 53.5943 25.1303 54.0842 25.9068 54.6353C26.2952 54.9212 26.5813 54.9416 26.9695 54.6558C27.6849 54.1251 28.4615 53.676 29.1768 53.1656C29.7899 52.7165 30.3826 52.696 30.9957 53.1452C31.7723 53.676 32.549 54.2271 33.3664 54.6967C33.5912 54.8191 34 54.8191 34.2044 54.6967C35.0422 54.2068 35.8394 53.6555 36.6364 53.1043C37.1881 52.7165 37.7196 52.7165 38.2714 53.1043C39.4158 53.8801 40.5603 54.615 41.7048 55.3907C42.4201 55.8807 42.5631 56.534 42.1543 57.1463C41.7456 57.7792 41.0916 57.8814 40.356 57.4118C39.5385 56.881 38.721 56.3502 37.9443 55.7991C37.5969 55.554 37.3517 55.554 37.0043 55.7991C36.2481 56.3502 35.4306 56.8402 34.654 57.3709C34.0817 57.7588 33.5299 57.7792 32.9576 57.3709C32.2219 56.8605 31.4453 56.4114 30.7505 55.8807C30.2804 55.5133 29.933 55.554 29.4834 55.9012C28.8089 56.4114 28.0732 56.8198 27.3988 57.3097C26.7448 57.7792 26.152 57.7588 25.4981 57.2893C24.7624 56.7585 23.9858 56.2482 23.2091 55.7786C22.9844 55.6562 22.5756 55.6562 22.3508 55.7786C21.472 56.289 20.6545 56.9219 19.7962 57.4526C18.9174 58.0038 17.8955 57.4526 17.875 56.2073Z" fill="#2B616D"/>
<path d="M42.3806 62.2911C42.3806 63.5567 41.3587 64.1284 40.48 63.5976C39.642 63.0872 38.8042 62.536 38.007 61.944C37.5983 61.6582 37.3122 61.6786 36.9239 61.9644C36.1881 62.4952 35.3911 62.9851 34.635 63.4955C34.0627 63.9038 33.5109 63.8834 32.9386 63.4955C32.162 62.9647 31.365 62.4543 30.5883 61.9235C30.2409 61.6786 29.9957 61.6582 29.6483 61.9235C28.9125 62.4543 28.1155 62.9444 27.3798 63.4547C26.7667 63.9038 26.1739 63.9038 25.5608 63.475C24.8455 62.9647 24.0893 62.536 23.415 62.0257C22.9449 61.6582 22.5975 61.6991 22.1479 62.0461C21.4326 62.5769 20.6764 63.0464 19.9201 63.5364C19.1844 64.0058 18.5305 63.9242 18.1012 63.3118C17.6721 62.6789 17.8355 62.0052 18.5713 61.4949C19.6954 60.7396 20.8194 60.0047 21.9435 59.2493C22.5156 58.8614 23.0674 58.8614 23.6397 59.2493C24.4164 59.7801 25.2134 60.27 25.99 60.8213C26.3374 61.0662 26.5827 61.0866 26.9301 60.8213C27.6864 60.27 28.5037 59.7801 29.2804 59.2493C29.8526 58.8614 30.4044 58.841 30.9767 59.2493C31.7124 59.7597 32.4685 60.2088 33.2043 60.7396C33.6334 61.0457 33.9605 61.1071 34.4101 60.7599C35.1049 60.2088 35.9021 59.7801 36.6174 59.2698C37.1895 58.8819 37.7414 58.8614 38.3136 59.2493C39.4581 60.025 40.623 60.7599 41.7471 61.5562C42.0537 61.7399 42.258 62.1278 42.3806 62.2911Z" fill="#2B616D"/>
<path d="M45.5688 37.9365C43.8521 39.4675 43.3412 39.6104 42.7077 38.9572C42.0946 38.3039 42.2581 37.8343 43.6274 36.3033C43.4842 36.1399 43.3617 35.9766 43.1982 35.8133C42.2581 34.8538 42.115 34.2005 42.7077 33.6085C43.3208 32.9757 43.9748 33.139 44.9762 34.0985C45.0989 34.221 45.2419 34.3434 45.5893 34.6701C45.855 34.3231 46.0594 33.9352 46.366 33.6494C46.9178 33.0982 47.6331 33.0982 48.144 33.5882C48.6345 34.0781 48.6345 34.7721 48.0827 35.3641C47.817 35.65 47.4695 35.8746 47.1425 36.1399C47.1016 36.2624 47.0813 36.3645 47.0403 36.487C47.3469 36.6707 47.6739 36.8341 47.9396 37.079C48.6345 37.7527 48.6958 38.4671 48.1235 38.9979C47.5717 39.5287 46.8973 39.4675 46.2024 38.7734C45.9572 38.5285 45.7937 38.2222 45.5688 37.9365Z" fill="#2B616D"/>
<path d="M63.9216 50.2054C62.164 51.6957 61.7144 51.8386 61.1013 51.2058C60.4882 50.5933 60.6108 50.1646 62.1232 48.3681C61.837 48.1435 61.4896 47.919 61.2035 47.6332C60.6108 47.0412 60.5904 46.3267 61.1218 45.8163C61.6326 45.306 62.3479 45.3468 62.9407 45.9388C63.2062 46.2041 63.4106 46.5308 63.7785 47.0004C64.2078 46.49 64.453 46.1429 64.7595 45.8571C65.3318 45.3263 66.0471 45.3468 66.5376 45.8571C67.0077 46.347 66.9872 47.0207 66.4967 47.572C66.231 47.8782 65.8836 48.1232 65.5157 48.4498C65.8836 48.8377 66.1902 49.1235 66.4762 49.4297C67.028 50.0422 67.028 50.6954 66.5376 51.2058C66.0266 51.7161 65.3522 51.7161 64.7595 51.1853C64.4325 50.8995 64.2078 50.5525 63.9216 50.2054Z" fill="#2B616D"/>
<path d="M53.9874 60.1265C52.6998 60.1265 52.1685 59.7794 52.1685 58.9221C52.148 58.0646 52.6998 57.6768 53.9669 57.6768C55.2953 57.6768 55.8471 58.0443 55.8268 58.9221C55.8063 59.7794 55.275 60.1265 53.9874 60.1265Z" fill="#2B616D"/>
<path d="M60.1398 57.6768C60.1807 57.6768 60.242 57.6768 60.2829 57.6768C61.4069 57.6768 61.9382 58.0646 61.9382 58.9016C61.9382 59.7387 61.4069 60.1265 60.2829 60.1265C59.9968 60.1265 59.7311 60.1469 59.445 60.1265C58.7092 60.0652 58.2596 59.5753 58.28 58.8812C58.3004 58.2075 58.7297 57.7585 59.445 57.6971C59.6697 57.6768 59.915 57.6971 60.1398 57.6768C60.1398 57.6768 60.1398 57.6971 60.1398 57.6768Z" fill="#2B616D"/>
<path d="M66.2292 57.6768C67.5166 57.6768 68.048 58.0238 68.0685 58.8812C68.0889 59.759 67.5371 60.1265 66.2087 60.1265C66.0248 60.1265 65.8613 60.1265 65.6774 60.1265C64.8802 60.0857 64.4102 59.6161 64.4102 58.9016C64.4102 58.1872 64.9007 57.738 65.6977 57.6971C65.8816 57.6768 66.0656 57.6768 66.2292 57.6768Z" fill="#2B616D"/>
<path d="M30.1412 11.806C30.1412 10.4587 30.1412 9.11133 30.1412 7.76397C30.1412 6.86574 30.6112 6.33496 31.3675 6.33496C32.1237 6.33496 32.5936 6.86574 32.5936 7.76397C32.5936 10.1729 32.5732 12.6022 32.6141 15.011C32.6141 15.3377 32.798 15.7461 33.0228 15.991C33.9017 16.93 34.8417 17.8283 35.7614 18.7674C36.395 19.4206 36.4359 20.1147 35.9045 20.6455C35.3732 21.1763 34.6782 21.1354 34.0242 20.5026C32.9002 19.4002 31.7557 18.2978 30.693 17.1547C30.4068 16.828 30.2025 16.3176 30.1616 15.889C30.0799 14.5007 30.1412 13.1534 30.1412 11.806Z" fill="#2B616D"/>
</svg>
