<svg width="30" height="30" viewBox="0 0 30 30" fill="none" xmlns="http://www.w3.org/2000/svg">
<path d="M1.97814 10.6758C1.19391 10.4531 1.01833 10.207 1.00663 9.41016C1.00663 9.17578 0.994921 8.94141 1.00663 8.70703C1.03004 8.13281 1.428 7.74609 2.00155 7.73438C2.52827 7.72266 3.05499 7.73438 3.58171 7.73438C3.67535 7.73438 9.36396 7.72266 9.6917 7.72266C9.6917 7.60547 9.6917 7.48828 9.6917 7.37109C9.6917 5.29688 9.6917 3.21094 9.6917 1.13672C9.6917 0.375 10.0663 0 10.8154 0C13.6129 0 16.4103 0 19.2078 0C19.9452 0 20.3198 0.375 20.3198 1.125C20.3198 3.19922 20.3198 5.28516 20.3198 7.35937C20.3198 7.47656 20.3198 7.59375 20.3198 7.72266C20.6475 7.72266 27.3545 7.74609 27.9748 7.73438C28.2909 7.73438 28.5718 7.82813 28.7825 8.07422C29.1336 8.47266 29.1453 9.91406 28.7825 10.3008C28.6069 10.4883 28.3377 10.582 28.0685 10.7461C28.0685 11.9414 28.0685 13.2188 28.0685 14.5312C28.2558 14.5312 28.443 14.5195 28.6186 14.5312C29.3443 14.5664 29.9881 15.1523 29.9764 15.8906C29.953 17.7188 30.1051 19.5586 29.8476 21.3867C29.8359 21.4805 29.8593 21.5742 29.8827 21.668C30.2573 22.9453 29.3911 24.1641 28.0568 24.1992C27.7993 24.1992 27.6705 24.2813 27.5418 24.5039C27.3779 24.7969 27.1321 25.043 26.9097 25.3359C26.9799 25.4297 27.0736 25.5352 27.1672 25.6523C27.729 26.3555 28.0217 27.1523 28.0334 28.0547C28.0451 28.6992 28.0334 29.3438 28.0334 30C25.4583 30 22.8949 30 20.2964 30C20.3666 28.9922 20.1676 27.9727 20.4603 26.9766C20.6475 26.3437 20.987 25.8047 21.4201 25.3594C21.1626 24.9961 20.9167 24.6445 20.6709 24.3047C20.6358 24.2461 20.5305 24.2227 20.4485 24.2227C19.8282 24.2344 19.3015 24.0352 18.8684 23.5664C18.5875 23.8711 18.3182 24.1758 18.0842 24.4453C18.3768 24.9141 18.7279 25.3477 18.9386 25.8516C19.1493 26.3438 19.2664 26.8945 19.3015 27.4336C19.36 28.2773 19.3132 29.1328 19.3132 30C16.422 30 13.5426 30 10.6398 30C10.6398 29.1328 10.6398 28.2656 10.6398 27.375C10.3004 27.5742 9.98432 27.7617 9.65659 27.9492C9.65659 28.6055 9.65659 29.2852 9.65659 29.9883C7.0815 29.9883 4.52982 29.9883 1.91961 29.9883C1.91961 29.5078 1.8845 29.0273 1.93132 28.5469C1.96643 28.1133 1.84938 27.8789 1.43971 27.6562C0.479903 27.1406 0.011705 26.2734 0 25.1836C0.0351149 23.3789 0.0351149 21.5977 0.0468198 19.8047C0.0585248 18.2578 0.655477 16.957 1.77915 15.9141C1.91961 15.7852 1.97814 15.6563 1.97814 15.4688C1.96643 13.875 1.97814 12.2812 1.97814 10.6758ZM18.4119 20.4258C18.4119 19.9453 18.4119 19.4648 18.4119 18.9961C18.4119 18.5625 18.2363 18.3984 17.8032 18.3984C17.0658 18.3984 16.3167 18.3984 15.5793 18.3984C14.7716 18.3984 14.0811 18.1289 13.4841 17.5664C13.4022 17.4844 13.25 17.4258 13.133 17.4258C12.2902 17.4258 11.6581 18.0352 11.6464 18.8672C11.6347 19.8516 11.623 20.8359 11.6464 21.8203C11.6698 23.0273 12.5126 24.0117 13.7065 24.1406C14.5727 24.2344 15.4622 24.2344 16.3284 24.1406C17.5574 24.0117 18.3768 23.0039 18.4119 21.7734C18.4236 21.3281 18.4119 20.8711 18.4119 20.4258ZM20.2847 18.5625C20.7412 16.2539 18.9971 13.8164 16.6444 13.6055C15.6729 13.5117 14.6897 13.5117 13.7299 13.5703C11.8337 13.6875 10.3355 14.9414 9.85557 16.7344C9.6917 17.3438 9.65659 17.9648 9.76193 18.5859C10.0077 18.5156 10.2184 18.4336 10.4408 18.4102C10.6398 18.3867 10.7334 18.3398 10.8037 18.1289C11.0846 17.2617 11.6932 16.7344 12.5711 16.5117C12.6296 16.5 12.6882 16.4766 12.735 16.4531C12.6882 16.125 12.6413 15.8086 12.5945 15.4805C12.9574 15.4805 13.25 15.4805 13.5426 15.4805C13.5543 15.5391 13.566 15.5742 13.566 15.6094C13.765 16.793 14.4673 17.3906 15.6729 17.3906C16.3752 17.3906 17.0775 17.3906 17.7798 17.3906C18.4236 17.3906 18.9035 17.6484 19.2195 18.2227C19.2546 18.293 19.3366 18.3516 19.4068 18.375C19.6877 18.457 19.9804 18.5039 20.2847 18.5625ZM8.87235 19.418C8.87235 19.4297 8.88406 19.3945 8.87235 19.3711C8.73189 18.4102 8.66166 17.4492 8.91917 16.4883C8.93088 16.4297 8.86065 16.3008 8.80212 16.2656C8.53291 16.1016 8.2637 15.9492 7.98278 15.8203C7.16343 15.4453 6.29726 15.4688 5.4311 15.4805C2.98476 15.4922 1.07686 17.332 1.03004 19.793C0.994921 21.5742 1.01833 23.3672 1.01833 25.1484C1.01833 25.2539 1.03004 25.3594 1.04174 25.4648C1.12368 26.0977 1.63869 26.7422 2.09519 26.8594C2.42292 26.3203 2.75066 25.793 3.09011 25.2422C2.48145 24.6914 2.06007 23.9648 2.00155 23.0977C1.94302 22.2539 1.94302 21.3984 2.00155 20.5547C2.07178 19.5 2.8443 18.6914 3.87434 18.457C3.93286 18.4453 4.00309 18.4102 4.04991 18.3984C4.00309 18.0703 3.94457 17.7656 3.89775 17.4258C4.19037 17.4258 4.41277 17.4375 4.63516 17.4258C4.83414 17.4141 4.89267 17.4844 4.91608 17.6836C5.02142 18.5977 5.78225 19.3125 6.69523 19.3594C7.05809 19.3711 7.42094 19.3594 7.77209 19.3711C8.12324 19.3594 8.48609 19.3945 8.87235 19.418ZM29.04 20.5078C29.04 18.9961 29.04 17.4844 29.04 15.9727C29.04 15.6328 28.8293 15.4805 28.443 15.4805C26.8395 15.4805 25.2476 15.4805 23.644 15.4805C22.9534 15.4805 22.2979 15.6445 21.6776 15.9727C21.1157 16.2656 21.1157 16.2656 21.2211 16.8867C21.2211 16.9102 21.2328 16.9453 21.2328 16.9688C21.2328 17.6016 21.2328 18.2227 21.2328 18.8555C21.6425 18.6797 22.0287 18.5156 22.4033 18.3633C22.3565 18.0703 22.3096 17.7539 22.2628 17.4258C22.614 17.4258 22.9183 17.4258 23.2226 17.4258C23.2343 17.5078 23.2577 17.5664 23.2577 17.6367C23.4099 18.6562 24.1473 19.3125 25.1656 19.3359C25.6104 19.3477 26.0669 19.3359 26.5117 19.3359C27.1438 19.3359 27.612 19.5937 27.9163 20.1562C27.9514 20.2148 28.0099 20.2852 28.0685 20.3086C28.3728 20.3906 28.6771 20.4375 29.04 20.5078ZM27.1321 21.9258C27.1204 21.9258 27.1087 21.9258 27.097 21.9258C27.097 21.5625 27.1087 21.1992 27.097 20.8477C27.0853 20.4961 26.9097 20.332 26.5585 20.332C26.1255 20.332 25.7041 20.332 25.271 20.332C24.4399 20.332 23.7259 20.0625 23.129 19.4883C23.0471 19.4063 22.9066 19.3594 22.8012 19.3594C21.9585 19.3594 21.3264 19.9687 21.303 20.8242C21.2913 21.4687 21.2796 22.1133 21.303 22.7578C21.3381 23.9531 22.1107 24.9023 23.246 25.1016C23.7493 25.1836 24.2761 25.1602 24.7911 25.1484C25.8796 25.1133 26.7926 24.375 27.0267 23.2969C27.1204 22.8516 27.097 22.3828 27.1321 21.9258ZM2.94965 21.832C2.94965 22.1836 2.93794 22.5352 2.94965 22.8867C3.00817 23.9648 3.74558 24.8789 4.81073 25.0781C5.34916 25.1836 5.911 25.1602 6.47284 25.1367C7.61992 25.1016 8.60314 24.1992 8.70848 23.0508C8.77871 22.3125 8.7436 21.5742 8.7436 20.8242C8.7436 20.4844 8.54461 20.3203 8.19347 20.3203C7.76038 20.3203 7.31559 20.3203 6.88251 20.3203C6.07487 20.3086 5.38428 20.0508 4.78732 19.4883C4.7171 19.418 4.61175 19.3594 4.51811 19.3477C3.71047 19.2773 3.00817 19.8867 2.96135 20.707C2.93794 21.0937 2.94965 21.457 2.94965 21.832ZM19.3483 13.7109C19.3483 10.1016 19.3483 6.52734 19.3483 2.92969C16.4572 2.92969 13.5777 2.92969 10.6983 2.92969C10.6983 6.52734 10.6983 10.1133 10.6983 13.7109C10.9324 13.5586 11.1314 13.4062 11.3538 13.3008C11.5879 13.1953 11.6347 13.043 11.6347 12.7969C11.623 9.9375 11.623 7.07812 11.623 4.21875C11.623 4.10156 11.623 3.99609 11.623 3.89063C13.9055 3.89063 16.1528 3.89063 18.4002 3.89063C18.4002 5.01563 18.4002 6.11719 18.4002 7.21875C18.4002 9.10547 18.4002 10.9922 18.4002 12.8672C18.4002 12.9727 18.4236 13.1133 18.4938 13.1719C18.7747 13.3711 19.0557 13.5234 19.3483 13.7109ZM18.4002 29.0156C18.4002 28.4531 18.4236 27.9258 18.4002 27.3984C18.3534 26.5078 17.9905 25.7461 17.3467 25.125C17.218 25.0078 17.1243 24.9727 16.9371 25.0195C16.6327 25.1016 16.3284 25.1484 16.0124 25.1602C15.3452 25.1836 14.6897 25.1836 14.0225 25.1602C13.7182 25.1484 13.4256 25.1016 13.133 25.0313C12.9457 24.9844 12.8286 25.0195 12.6999 25.1367C11.5411 26.2148 11.5762 27.6094 11.6581 29.0273C13.9172 29.0156 16.1411 29.0156 18.4002 29.0156ZM2.96135 15.0352C5.15018 14.2734 7.26878 14.2266 9.31714 15.4102C9.70341 14.8594 9.7034 14.8594 9.7034 14.2383C9.7034 13.1602 9.7034 12.0703 9.7034 10.9922C9.7034 10.8867 9.7034 10.7812 9.7034 10.6758C7.43264 10.6758 5.2087 10.6758 2.96135 10.6758C2.96135 12.1406 2.96135 13.582 2.96135 15.0352ZM27.0853 14.5195C27.0853 13.2188 27.0853 11.9531 27.0853 10.6758C24.8262 10.6758 22.6023 10.6758 20.3432 10.6758C20.3432 11.8828 20.3666 13.0664 20.3315 14.2383C20.3198 14.6953 20.4486 15.0469 20.7295 15.3984C20.7646 15.375 20.8114 15.3633 20.8465 15.3398C21.7361 14.7773 22.7076 14.5195 23.7611 14.5312C24.756 14.543 25.7509 14.5312 26.7458 14.5312C26.8512 14.5195 26.9565 14.5195 27.0853 14.5195ZM27.0853 29.0156C27.0853 28.582 27.1087 28.1953 27.0853 27.8086C27.0384 27.082 26.7224 26.4844 26.2074 25.9922C26.1372 25.9219 25.985 25.8984 25.8914 25.9219C24.7677 26.25 23.644 26.2383 22.532 25.9219C22.4501 25.8984 22.2862 25.9219 22.2394 25.9805C21.9936 26.3086 21.7244 26.6484 21.5371 27.0117C21.2679 27.5508 21.3264 28.1484 21.303 28.7344C21.2913 28.9805 21.3732 29.0391 21.619 29.0391C23.3397 29.0273 25.072 29.0391 26.7926 29.0391C26.8746 29.0273 26.9799 29.0156 27.0853 29.0156ZM8.70848 29.0156C8.70848 28.5586 8.7436 28.125 8.69678 27.6914C8.63825 27.0234 8.32222 26.4727 7.85402 26.0039C7.74868 25.8984 7.65504 25.8633 7.50287 25.9102C6.3909 26.25 5.27893 26.2383 4.16696 25.9219C4.07332 25.8984 3.90945 25.9102 3.83922 25.9805C2.93794 26.8125 2.8443 27.8789 2.96135 29.0156C4.90437 29.0156 6.80058 29.0156 8.70848 29.0156ZM10.6983 1.91016C13.6012 1.91016 16.4689 1.91016 19.3483 1.91016C19.3483 1.59375 19.3483 1.30078 19.3483 0.984375C16.4572 0.984375 13.5894 0.984375 10.6983 0.984375C10.6983 1.30078 10.6983 1.60547 10.6983 1.91016ZM9.6917 8.74219C7.10491 8.74219 4.55323 8.74219 2.00155 8.74219C2.00155 9.05859 2.00155 9.36328 2.00155 9.64453C4.57664 9.64453 7.14002 9.64453 9.6917 9.64453C9.6917 9.33984 9.6917 9.04687 9.6917 8.74219ZM28.0685 8.74219C25.4817 8.74219 22.93 8.74219 20.3666 8.74219C20.3666 9.05859 20.3666 9.35156 20.3666 9.65625C22.9417 9.65625 25.4934 9.65625 28.0685 9.65625C28.0685 9.33984 28.0685 9.05859 28.0685 8.74219ZM9.6917 22.0312C9.82045 23.2969 9.52783 24.4219 8.60314 25.2422C8.94258 25.8047 9.27032 26.332 9.59806 26.8828C10.1482 26.6016 10.593 26.1328 10.6281 25.4648C10.6866 24.4102 10.6398 23.3437 10.6398 22.2891C10.3472 22.2187 10.0428 22.1367 9.6917 22.0312ZM12.6296 10.6641C12.6296 11.3789 12.6296 12.0586 12.6296 12.7031C13.2734 12.6445 13.8938 12.5977 14.5258 12.5391C14.5258 11.918 14.5258 11.2969 14.5258 10.6641C13.8938 10.6641 13.2734 10.6641 12.6296 10.6641ZM15.5208 10.6641C15.5208 11.3203 15.5208 11.9297 15.5208 12.5391C16.1645 12.5977 16.7849 12.6445 17.417 12.7031C17.417 12.0352 17.417 11.3555 17.417 10.6641C16.7849 10.6641 16.1645 10.6641 15.5208 10.6641ZM14.5258 7.75781C13.8704 7.75781 13.25 7.75781 12.6296 7.75781C12.6296 8.40234 12.6296 9.03516 12.6296 9.65625C13.2734 9.65625 13.8938 9.65625 14.5258 9.65625C14.5258 9.01172 14.5258 8.39062 14.5258 7.75781ZM17.4287 7.76953C16.7732 7.76953 16.1528 7.76953 15.5208 7.76953C15.5208 8.41406 15.5208 9.03516 15.5208 9.65625C16.1645 9.65625 16.7966 9.65625 17.4287 9.65625C17.4287 9.01172 17.4287 8.40234 17.4287 7.76953ZM17.417 4.86328C16.7732 4.86328 16.1528 4.86328 15.5208 4.86328C15.5208 5.50781 15.5208 6.11719 15.5208 6.76172C16.1528 6.76172 16.7732 6.76172 17.417 6.76172C17.417 6.12891 17.417 5.50781 17.417 4.86328ZM12.6413 4.86328C12.6413 5.51953 12.6413 6.14063 12.6413 6.76172C13.2851 6.76172 13.9055 6.76172 14.5258 6.76172C14.5258 6.11719 14.5258 5.50781 14.5258 4.86328C13.8938 4.86328 13.2734 4.86328 12.6413 4.86328ZM10.6515 21.2578C10.6515 20.6367 10.6515 20.0156 10.6515 19.3828C10.0897 19.4062 9.68 19.8398 9.7034 20.3672C9.72681 20.8828 10.1599 21.2812 10.6515 21.2578ZM19.3951 21.2578C19.9101 21.2812 20.3315 20.8828 20.3432 20.3555C20.3666 19.8281 19.9452 19.3945 19.3951 19.3828C19.3951 20.0039 19.3951 20.6367 19.3951 21.2578ZM28.0802 23.2148C28.4196 23.2266 28.6888 23.0742 28.8761 22.793C29.0868 22.4766 29.0985 22.1367 28.9229 21.7969C28.7474 21.4805 28.4781 21.3047 28.0568 21.3047C28.0568 21.9258 28.0568 22.5234 28.0568 23.1328C28.0568 23.1445 28.0685 23.168 28.0802 23.2148ZM20.3432 23.2031C20.3432 22.9922 20.3432 22.8047 20.3432 22.6055C20.3432 22.418 20.3432 22.2305 20.3432 22.043C20.0038 22.1367 19.6994 22.2188 19.3951 22.3008C19.4302 22.8516 19.7814 23.1914 20.3432 23.2031ZM11.9976 24.457C11.8922 24.3633 11.7986 24.2812 11.6581 24.1641C11.6581 24.4102 11.6581 24.5859 11.6581 24.8203C11.7869 24.6797 11.8805 24.5742 11.9976 24.457Z" fill="#2B616D"/>
<path d="M16.914 21.7734C16.715 21.7734 16.5161 21.7734 16.3054 21.7734C16.2937 21.8086 16.282 21.8321 16.282 21.8672C16.1766 22.2541 15.9659 22.4182 15.5562 22.4182C15.3573 22.4182 15.1583 22.4182 14.971 22.4182C14.9476 22.4182 14.9125 22.4182 14.8891 22.4182C14.6901 22.4182 14.4911 22.4182 14.3038 22.4182C13.9058 22.4182 13.6835 22.2424 13.5781 21.8672C13.5664 21.8321 13.5547 21.8086 13.5547 21.7734C13.344 21.7734 13.145 21.7734 12.946 21.7734C12.8875 22.3596 13.3908 22.9809 14.0112 23.0395C14.3155 23.063 14.6199 23.063 14.9359 23.063C15.2519 23.0747 15.5562 23.0747 15.8606 23.0395C16.4692 22.9809 16.9725 22.3479 16.914 21.7734Z" fill="#2B616D"/>
<path d="M13.0858 20.3207C12.8283 20.3207 12.6059 20.0979 12.6176 19.8283C12.6176 19.5587 12.8283 19.3477 13.0975 19.3477C13.355 19.3477 13.5774 19.5704 13.5657 19.84C13.5657 20.1097 13.355 20.3207 13.0858 20.3207Z" fill="#2B616D"/>
<path d="M17.4286 19.84C17.4286 20.1097 17.2062 20.3207 16.9487 20.3207C16.6912 20.3207 16.4805 20.0979 16.4805 19.8283C16.4805 19.5587 16.7029 19.3477 16.9604 19.3477C17.2296 19.3594 17.4403 19.5821 17.4286 19.84Z" fill="#2B616D"/>
<path d="M7.78418 11.625C8.10021 11.625 8.40454 11.625 8.72057 11.625C8.72057 11.9415 8.72057 12.2463 8.72057 12.5746C8.40454 12.5746 8.10021 12.5746 7.78418 12.5746C7.78418 12.2581 7.78418 11.9533 7.78418 11.625Z" fill="#2B616D"/>
<path d="M6.80065 11.625C6.80065 11.9415 6.80065 12.2463 6.80065 12.5629C6.48462 12.5629 6.18029 12.5629 5.86426 12.5629C5.86426 12.2581 5.86426 11.9533 5.86426 11.625C6.16859 11.625 6.46121 11.625 6.80065 11.625Z" fill="#2B616D"/>
<path d="M3.93262 11.625C4.24865 11.625 4.55298 11.625 4.86901 11.625C4.86901 11.9415 4.86901 12.2463 4.86901 12.5746C4.55298 12.5746 4.26036 12.5746 3.93262 12.5746C3.93262 12.2581 3.93262 11.9533 3.93262 11.625Z" fill="#2B616D"/>
<path d="M23.2578 11.625C23.5973 11.625 23.8899 11.625 24.1942 11.625C24.1942 11.9415 24.1942 12.2346 24.1942 12.5629C23.8899 12.5629 23.5856 12.5629 23.2578 12.5629C23.2578 12.2463 23.2578 11.9415 23.2578 11.625Z" fill="#2B616D"/>
<path d="M21.3262 11.625C21.6422 11.625 21.9465 11.625 22.2626 11.625C22.2626 11.9415 22.2626 12.2463 22.2626 12.5746C21.9582 12.5746 21.6539 12.5746 21.3262 12.5746C21.3262 12.2581 21.3262 11.9533 21.3262 11.625Z" fill="#2B616D"/>
<path d="M25.1895 11.625C25.5055 11.625 25.7981 11.625 26.1258 11.625C26.1258 11.9415 26.1258 12.2463 26.1258 12.5746C25.8215 12.5746 25.5172 12.5746 25.1895 12.5746C25.1895 12.2463 25.1895 11.9415 25.1895 11.625Z" fill="#2B616D"/>
</svg>
