<svg width="38" height="38" viewBox="0 0 38 38" fill="none" xmlns="http://www.w3.org/2000/svg">
<path d="M36.7314 12.6948C24.8789 12.6948 13.0898 12.6948 1.26901 12.6948C1.26901 12.8534 1.26901 13.0014 1.26901 13.1388C1.26901 19.4492 1.26901 25.7491 1.26901 32.0595C1.26901 33.4548 2.03028 34.2053 3.41537 34.2053C9.10374 34.2053 14.7921 34.2053 20.4699 34.2053C20.5756 34.2053 20.6814 34.2053 20.7871 34.2053C21.2417 34.2158 21.5272 34.4695 21.5272 34.8501C21.5166 35.22 21.2417 35.4631 20.8082 35.4631C20.047 35.4737 19.2751 35.4631 18.5139 35.4631C13.4916 35.4631 8.45877 35.4631 3.43651 35.4631C1.32188 35.4631 0.0108057 34.1524 0.0108057 32.0384C0.0108057 23.7725 0.0108057 15.496 0.0108057 7.23004C0.000232485 5.12656 1.31131 3.80528 3.4048 3.80528C4.36695 3.80528 5.32911 3.80528 6.33357 3.80528C6.33357 3.42475 6.33357 3.07594 6.33357 2.72712C6.33357 1.15215 7.39088 0.0105695 8.86055 0.0105695C10.3408 0.0105695 11.3981 1.15215 11.4087 2.74826C11.4087 3.08651 11.4087 3.42475 11.4087 3.78414C13.1004 3.78414 14.7604 3.78414 16.4732 3.78414C16.4732 3.35076 16.4627 2.90681 16.4732 2.46286C16.505 1.22615 17.4143 0.211404 18.6619 0.0211397C19.8461 -0.158554 21.0303 0.581362 21.4003 1.74409C21.4849 2.00834 21.5166 2.28317 21.5272 2.558C21.5484 2.94909 21.5378 3.35076 21.5378 3.763C23.2295 3.763 24.8895 3.763 26.6023 3.763C26.6023 3.3719 26.6023 2.97023 26.6023 2.57914C26.6129 1.10987 27.7125 -0.010571 29.1293 -0.010571C30.5461 -0.010571 31.6457 1.10987 31.6669 2.57914C31.6669 2.97023 31.6669 3.36133 31.6669 3.79471C32.6502 3.79471 33.6018 3.79471 34.5428 3.79471C36.6892 3.79471 38.0002 5.09485 38.0002 7.24061C38.0002 12.5257 38.0002 17.8214 38.0002 23.1065C38.0002 23.1488 38.0002 23.1805 38.0002 23.2228C38.0002 23.7513 37.7676 24.0473 37.3658 24.0473C36.9641 24.0473 36.7314 23.7513 36.7314 23.2228C36.7314 19.872 36.7314 16.5213 36.7314 13.1705C36.7314 13.0331 36.7314 12.8745 36.7314 12.6948ZM16.4627 5.10542C14.7498 5.10542 13.0793 5.10542 11.3981 5.10542C11.3981 5.52823 11.3981 5.91933 11.3981 6.321C11.377 7.75855 10.2774 8.879 8.87113 8.879C7.46489 8.879 6.35471 7.76912 6.33357 6.33157C6.32299 5.9299 6.33357 5.51766 6.33357 5.07371C5.2551 5.07371 4.21893 5.06314 3.18276 5.07371C2.09372 5.08428 1.27959 5.89819 1.26901 6.98692C1.25844 7.94881 1.26901 8.91071 1.26901 9.8726C1.26901 10.3694 1.26901 10.8662 1.26901 11.3841C13.111 11.3841 24.9106 11.3841 36.7209 11.3841C36.7209 9.83032 36.7632 8.3082 36.7103 6.77552C36.6786 5.83477 35.8433 5.10542 34.8811 5.07371C34.4688 5.06314 34.067 5.07371 33.6547 5.07371C32.9991 5.07371 32.3436 5.07371 31.6669 5.07371C31.6669 5.48595 31.6669 5.85591 31.6669 6.22587C31.6563 7.73741 30.5884 8.86842 29.1505 8.879C27.702 8.879 26.6023 7.74798 26.6023 6.2153C26.6023 5.83477 26.6023 5.46481 26.6023 5.08428C24.8895 5.08428 23.2295 5.08428 21.5378 5.08428C21.5378 5.5388 21.5484 5.97218 21.5378 6.39499C21.4955 7.76912 20.3747 8.85785 19.0002 8.85785C17.6257 8.85785 16.5155 7.75855 16.4732 6.38442C16.4627 5.97218 16.4627 5.54937 16.4627 5.10542ZM10.1293 4.41836C10.1293 3.79471 10.1399 3.18164 10.1293 2.558C10.1188 1.81808 9.55838 1.26843 8.86055 1.26843C8.15215 1.26843 7.61292 1.82865 7.60235 2.56857C7.59177 3.80528 7.59177 5.05257 7.60235 6.28929C7.60235 7.0292 8.15215 7.58943 8.84998 7.6C9.56896 7.61057 10.1188 7.03977 10.1293 6.27872C10.1399 5.66564 10.1293 5.042 10.1293 4.41836ZM17.7314 4.4395C17.7314 5.042 17.7314 5.65507 17.7314 6.25758C17.742 7.0292 18.2707 7.6 18.9897 7.6C19.7086 7.6 20.2584 7.03977 20.2584 6.27872C20.269 5.05257 20.269 3.82642 20.2584 2.60028C20.2584 1.82865 19.6981 1.26843 18.9791 1.279C18.2601 1.28957 17.7315 1.84979 17.7209 2.62142C17.7315 3.22392 17.7314 3.83699 17.7314 4.4395ZM27.8606 4.45007C27.8606 5.042 27.8606 5.63393 27.8606 6.22587C27.8606 6.24701 27.8606 6.27872 27.8606 6.29986C27.8817 7.03977 28.4315 7.58943 29.1293 7.58943C29.8377 7.58943 30.377 7.0292 30.3875 6.28929C30.3981 5.05257 30.3981 3.80528 30.3875 2.56857C30.3875 1.82865 29.8377 1.26843 29.1399 1.25786C28.4209 1.24729 27.8711 1.80751 27.8606 2.57914C27.8606 3.21335 27.8606 3.83699 27.8606 4.45007Z" fill="#FA8D62"/>
<path d="M37.9999 29.7869C37.9682 34.3744 34.257 38.0211 29.6682 37.9894C25.1429 37.9577 21.4952 34.2053 21.5375 29.6178C21.5798 25.136 25.3227 21.4999 29.8691 21.5316C34.3522 21.5739 38.0211 25.3051 37.9999 29.7869ZM36.7311 29.7658C36.7206 25.9288 33.6015 22.8 29.7951 22.8C25.8936 22.8 22.7851 25.9182 22.7957 29.8186C22.8063 33.6239 25.9465 36.7316 29.7846 36.7316C33.6015 36.7316 36.7417 33.5816 36.7311 29.7658Z" fill="#FA8D62"/>
<path d="M7.59173 15.8342C8.00408 15.8342 8.40586 15.8342 8.81822 15.8342C9.57949 15.8448 10.1187 16.3627 10.1293 17.1238C10.1399 17.7474 10.1399 18.3605 10.1293 18.9842C10.1187 19.7241 9.59006 20.2526 8.84994 20.2632C8.00408 20.2737 7.15823 20.2737 6.32295 20.2632C5.61454 20.2526 5.08589 19.7135 5.07531 18.9947C5.06474 18.3605 5.06474 17.7263 5.07531 17.0921C5.08589 16.3733 5.61454 15.8448 6.33352 15.8342C6.74588 15.8236 7.1688 15.8342 7.59173 15.8342ZM6.36524 17.1132C6.36524 17.7369 6.36524 18.3499 6.36524 18.9736C7.20052 18.9736 8.02523 18.9736 8.83936 18.9736C8.83936 18.3394 8.83936 17.7263 8.83936 17.1132C8.00408 17.1132 7.20052 17.1132 6.36524 17.1132Z" fill="#FA8D62"/>
<path d="M15.1941 20.2631C14.7712 20.2631 14.3482 20.2737 13.9253 20.2631C13.2169 20.242 12.6883 19.7135 12.6671 18.9947C12.6565 18.3605 12.6565 17.7263 12.6671 17.0921C12.6777 16.3733 13.2063 15.8448 13.9253 15.8342C14.7817 15.8236 15.6382 15.8236 16.4946 15.8342C17.1819 15.8448 17.7105 16.3839 17.7317 17.0709C17.7422 17.7157 17.7422 18.3605 17.7317 19.0053C17.7105 19.7135 17.1819 20.2314 16.4629 20.2526C16.0294 20.2737 15.6065 20.2631 15.1941 20.2631ZM13.957 17.1238C13.957 17.7686 13.957 18.3711 13.957 18.9841C14.8029 18.9841 15.617 18.9841 16.4417 18.9841C16.4417 18.3499 16.4417 17.7369 16.4417 17.1238C15.5959 17.1238 14.7817 17.1238 13.957 17.1238Z" fill="#FA8D62"/>
<path d="M22.8072 20.2631C22.3949 20.2631 21.9931 20.2737 21.5807 20.2631C20.8195 20.2526 20.2802 19.7241 20.2696 18.9736C20.2591 18.3499 20.2591 17.7369 20.2696 17.1132C20.2802 16.3733 20.8089 15.8448 21.549 15.8342C22.3843 15.8236 23.209 15.8236 24.0443 15.8342C24.8055 15.8448 25.3236 16.3733 25.3342 17.1449C25.3448 17.7474 25.3448 18.3605 25.3342 18.963C25.3236 19.7241 24.795 20.2526 24.0337 20.2631C23.6213 20.2737 23.209 20.2631 22.8072 20.2631ZM21.5596 17.1238C21.5596 17.7686 21.5596 18.3816 21.5596 18.9841C22.4054 18.9841 23.209 18.9841 24.0443 18.9841C24.0443 18.3605 24.0443 17.7474 24.0443 17.1238C23.209 17.1238 22.3949 17.1238 21.5596 17.1238Z" fill="#FA8D62"/>
<path d="M30.3876 20.2631C29.9964 20.2631 29.5946 20.2631 29.2034 20.2631C28.4104 20.2526 27.8818 19.7346 27.8712 18.9524C27.8606 18.3499 27.8606 17.7369 27.8712 17.1344C27.8818 16.3733 28.4104 15.8448 29.1717 15.8342C29.9858 15.8236 30.8106 15.8236 31.6247 15.8342C32.4071 15.8448 32.9252 16.3733 32.9358 17.1661C32.9463 17.758 32.9463 18.3499 32.9358 18.9419C32.9252 19.7346 32.4071 20.2526 31.6141 20.2631C31.2018 20.2737 30.7894 20.2631 30.3876 20.2631ZM31.6458 17.1344C30.7788 17.1344 29.9647 17.1344 29.1506 17.1344C29.1506 17.7686 29.1506 18.3711 29.1506 18.9841C29.9964 18.9841 30.8106 18.9841 31.6458 18.9841C31.6458 18.3499 31.6458 17.758 31.6458 17.1344Z" fill="#FA8D62"/>
<path d="M7.59156 21.5316C8.00392 21.5316 8.4057 21.5316 8.81805 21.5316C9.57932 21.5421 10.1186 22.0601 10.1291 22.8211C10.1397 23.4448 10.1397 24.0579 10.1291 24.6815C10.1186 25.4214 9.58989 25.9499 8.84977 25.9605C8.01449 25.9711 7.18978 25.9711 6.3545 25.9605C5.59323 25.9499 5.07514 25.4214 5.06457 24.6498C5.054 24.0473 5.054 23.4342 5.06457 22.8317C5.07514 22.0707 5.59323 21.5421 6.36507 21.5316C6.77743 21.5316 7.17921 21.5316 7.59156 21.5316ZM8.8392 24.6815C8.8392 24.0367 8.8392 23.4342 8.8392 22.8317C7.99334 22.8317 7.16863 22.8317 6.3545 22.8317C6.3545 23.4659 6.3545 24.0684 6.3545 24.6815C7.18978 24.6815 8.00391 24.6815 8.8392 24.6815Z" fill="#FA8D62"/>
<path d="M15.2048 21.5316C15.6278 21.5316 16.0507 21.521 16.4736 21.5316C17.1926 21.5527 17.7213 22.0706 17.7318 22.7894C17.7424 23.4342 17.7424 24.079 17.7318 24.7238C17.7107 25.4214 17.182 25.9394 16.4842 25.9499C15.6278 25.9605 14.7713 25.9605 13.9149 25.9499C13.2171 25.9394 12.6884 25.4108 12.6779 24.7132C12.6673 24.0684 12.6673 23.4236 12.6779 22.7789C12.6884 22.0601 13.2171 21.5421 13.9466 21.5316C14.359 21.5316 14.7819 21.5316 15.2048 21.5316ZM16.4525 22.8317C15.5961 22.8317 14.7819 22.8317 13.9678 22.8317C13.9678 23.4659 13.9678 24.079 13.9678 24.6815C14.8136 24.6815 15.6172 24.6815 16.4525 24.6815C16.4525 24.0579 16.4525 23.4553 16.4525 22.8317Z" fill="#FA8D62"/>
<path d="M7.59156 31.6684C7.16863 31.6684 6.74571 31.679 6.32278 31.6684C5.6038 31.6473 5.07514 31.1188 5.06457 30.4106C5.054 29.7764 5.054 29.1421 5.06457 28.5079C5.07514 27.768 5.61438 27.2501 6.3545 27.2395C7.18978 27.2289 8.01449 27.2289 8.84977 27.2395C9.58989 27.2501 10.1186 27.7786 10.1291 28.5185C10.1397 29.1421 10.1397 29.7552 10.1291 30.3789C10.1186 31.1399 9.58989 31.6579 8.81805 31.6684C8.4057 31.6684 8.00392 31.6684 7.59156 31.6684ZM8.8392 30.3789C8.8392 29.7446 8.8392 29.1316 8.8392 28.5291C7.99334 28.5291 7.16863 28.5291 6.3545 28.5291C6.3545 29.1633 6.3545 29.7658 6.3545 30.3789C7.17921 30.3789 7.99334 30.3789 8.8392 30.3789Z" fill="#FA8D62"/>
<path d="M15.1941 31.6684C14.7712 31.6684 14.3482 31.679 13.9253 31.6684C13.2063 31.6473 12.6777 31.1293 12.6671 30.4106C12.6565 29.7658 12.6565 29.121 12.6671 28.4762C12.6883 27.7786 13.2169 27.2606 13.9147 27.2501C14.7712 27.2395 15.6276 27.2395 16.484 27.2501C17.1819 27.2606 17.7105 27.7891 17.7211 28.4868C17.7422 29.1421 17.7422 29.8081 17.7211 30.4634C17.6999 31.1399 17.1713 31.6473 16.4946 31.679C16.0717 31.679 15.6382 31.6684 15.1941 31.6684ZM13.9465 30.3683C14.8029 30.3683 15.6276 30.3683 16.4312 30.3683C16.4312 29.7341 16.4312 29.121 16.4312 28.5185C15.5853 28.5185 14.7712 28.5185 13.9465 28.5185C13.9465 29.1421 13.9465 29.7446 13.9465 30.3683Z" fill="#FA8D62"/>
<path d="M21.5483 22.8C21.5483 23.4554 21.5483 24.0579 21.5483 24.6604C21.6435 24.7026 21.7281 24.7238 21.8126 24.7661C22.0875 24.9141 22.225 25.1466 22.151 25.4531C22.077 25.7702 21.8549 25.9499 21.5272 25.9605C20.9033 25.9816 20.3007 25.432 20.2795 24.7766C20.2584 24.0896 20.2584 23.4025 20.2795 22.7154C20.3007 22.0601 20.8293 21.5527 21.4954 21.5316C22.3413 21.5104 23.1871 21.521 24.033 21.5316C24.4348 21.5316 24.7097 21.7958 24.7097 22.1552C24.7097 22.5252 24.4348 22.7894 24.0119 22.7894C23.1871 22.8106 22.3836 22.8 21.5483 22.8Z" fill="#FA8D62"/>
<path d="M28.5583 32.1018C28.6746 31.9433 28.738 31.8058 28.8437 31.7107C30.2923 30.252 31.7514 28.8039 33.1999 27.3452C33.2845 27.2606 33.3691 27.1761 33.4537 27.1021C33.7391 26.8801 34.0775 26.8907 34.3101 27.1444C34.5533 27.3981 34.5533 27.6835 34.3524 27.9688C34.2889 28.0534 34.2149 28.1274 34.1409 28.2014C32.4703 29.8715 30.7998 31.5416 29.1398 33.2117C28.6429 33.7085 28.3785 33.719 27.8816 33.2222C27.078 32.4189 26.2639 31.6261 25.492 30.8122C25.3335 30.6431 25.2066 30.3366 25.2383 30.1252C25.3229 29.6072 25.9255 29.491 26.3485 29.8926C27.0463 30.5797 27.7547 31.2879 28.5583 32.1018Z" fill="#FA8D62"/>
</svg>
