<svg width="31" height="30" viewBox="0 0 31 30" fill="none" xmlns="http://www.w3.org/2000/svg">
<path d="M29.16 10.0223C19.7684 10.0223 10.427 10.0223 1.0605 10.0223C1.0605 10.1475 1.0605 10.2643 1.0605 10.3728C1.0605 15.3547 1.0605 20.3283 1.0605 25.3102C1.0605 26.4117 1.66371 27.0042 2.76121 27.0042C7.26853 27.0042 11.7758 27.0042 16.2748 27.0042C16.3586 27.0042 16.4423 27.0042 16.5261 27.0042C16.8864 27.0126 17.1126 27.2129 17.1126 27.5133C17.1042 27.8053 16.8864 27.9973 16.5429 27.9973C15.9397 28.0056 15.3281 27.9973 14.7249 27.9973C10.7454 27.9973 6.75748 27.9973 2.77797 27.9973C1.10239 27.9973 0.0635269 26.9625 0.0635269 25.2935C0.0635269 18.7678 0.0635269 12.2337 0.0635269 5.70799C0.0551489 4.04735 1.09401 3.00423 2.75284 3.00423C3.51523 3.00423 4.27762 3.00423 5.07352 3.00423C5.07352 2.70381 5.07352 2.42843 5.07352 2.15305C5.07352 0.909656 5.91131 0.00840432 7.07584 0.00840432C8.24875 0.00840432 9.08654 0.909656 9.09491 2.16974C9.09491 2.43678 9.09491 2.70381 9.09491 2.98754C10.4354 2.98754 11.7507 2.98754 13.1079 2.98754C13.1079 2.6454 13.0996 2.29491 13.1079 1.94443C13.1331 0.96807 13.8536 0.166958 14.8422 0.0167492C15.7805 -0.125114 16.7188 0.45903 17.012 1.37697C17.0791 1.58559 17.1042 1.80256 17.1126 2.01953C17.1293 2.32829 17.121 2.6454 17.121 2.97085C18.4614 2.97085 19.7768 2.97085 21.134 2.97085C21.134 2.66209 21.134 2.34498 21.134 2.03622C21.1424 0.876276 22.0137 -0.00828552 23.1363 -0.00828552C24.2589 -0.00828552 25.1302 0.876276 25.147 2.03622C25.147 2.34498 25.147 2.65374 25.147 2.99589C25.9261 2.99589 26.6802 2.99589 27.4258 2.99589C29.1265 2.99589 30.1654 4.02231 30.1654 5.71633C30.1654 9.88879 30.1654 14.0696 30.1654 18.2421C30.1654 18.2754 30.1654 18.3005 30.1654 18.3339C30.1654 18.7511 29.981 18.9848 29.6627 18.9848C29.3443 18.9848 29.16 18.7511 29.16 18.3339C29.16 15.6885 29.16 13.0432 29.16 10.3978C29.16 10.2893 29.16 10.1642 29.16 10.0223ZM13.0996 4.03066C11.7423 4.03066 10.4186 4.03066 9.08654 4.03066C9.08654 4.36445 9.08654 4.67322 9.08654 4.99032C9.06978 6.12523 8.19848 7.00979 7.08422 7.00979C5.96995 7.00979 5.09027 6.13358 5.07352 4.99867C5.06514 4.68156 5.07352 4.35611 5.07352 4.00562C4.21897 4.00562 3.39794 3.99728 2.5769 4.00562C1.71398 4.01397 1.06888 4.65653 1.0605 5.51605C1.05212 6.27544 1.0605 7.03483 1.0605 7.79422C1.0605 8.18643 1.0605 8.57864 1.0605 8.98754C10.4438 8.98754 19.7935 8.98754 29.1516 8.98754C29.1516 7.76084 29.1851 6.55917 29.1433 5.34915C29.1181 4.60646 28.4563 4.03066 27.6939 4.00562C27.3671 3.99728 27.0488 4.00562 26.722 4.00562C26.2026 4.00562 25.6832 4.00562 25.147 4.00562C25.147 4.33107 25.147 4.62315 25.147 4.91522C25.1386 6.10854 24.2924 7.00145 23.1531 7.00979C22.0053 7.00979 21.134 6.11689 21.134 4.90687C21.134 4.60646 21.134 4.31438 21.134 4.01397C19.7768 4.01397 18.4614 4.01397 17.121 4.01397C17.121 4.3728 17.1293 4.71494 17.121 5.04874C17.0874 6.13358 16.1994 6.9931 15.1103 6.9931C14.0211 6.9931 13.1414 6.12523 13.1079 5.04039C13.0996 4.71494 13.0996 4.38114 13.0996 4.03066ZM8.08119 3.48824C8.08119 2.99589 8.08957 2.51188 8.08119 2.01953C8.07281 1.43539 7.62878 1.00145 7.07584 1.00145C6.51452 1.00145 6.08724 1.44373 6.07887 2.02788C6.07049 3.00423 6.07049 3.98893 6.07887 4.96529C6.07887 5.54943 6.51452 5.99171 7.06746 6.00006C7.63716 6.0084 8.07281 5.55778 8.08119 4.95694C8.08957 4.47294 8.08119 3.98059 8.08119 3.48824ZM14.1049 3.50493C14.1049 3.98059 14.1049 4.46459 14.1049 4.94025C14.1133 5.54943 14.5322 6.00006 15.1019 6.00006C15.6716 6.00006 16.1072 5.55778 16.1072 4.95694C16.1156 3.98893 16.1156 3.02092 16.1072 2.05291C16.1072 1.44373 15.6632 1.00145 15.0935 1.00979C14.5238 1.01814 14.1049 1.46042 14.0965 2.0696C14.1049 2.54526 14.1049 3.02927 14.1049 3.50493ZM22.1309 3.51327C22.1309 3.98059 22.1309 4.4479 22.1309 4.91522C22.1309 4.93191 22.1309 4.95694 22.1309 4.97363C22.1477 5.55778 22.5834 5.99171 23.1363 5.99171C23.6976 5.99171 24.1249 5.54943 24.1333 4.96529C24.1416 3.98893 24.1416 3.00423 24.1333 2.02788C24.1333 1.44373 23.6976 1.00145 23.1447 0.993105C22.575 0.98476 22.1393 1.42704 22.1309 2.03622C22.1309 2.53692 22.1309 3.02927 22.1309 3.51327Z" fill="#2B616D"/>
<path d="M30.1658 23.516C30.1407 27.1377 27.2 30.0167 23.564 29.9916C19.9783 29.9666 17.0879 27.0042 17.1214 23.3825C17.1549 19.8442 20.1207 16.9736 23.7232 16.9986C27.2754 17.032 30.1825 19.9777 30.1658 23.516ZM29.1604 23.4993C29.1521 20.4701 26.6806 18 23.6645 18C20.5731 18 18.11 20.4618 18.1184 23.541C18.1267 26.5452 20.615 28.9986 23.6562 28.9986C26.6806 28.9986 29.1688 26.5118 29.1604 23.4993Z" fill="#2B616D"/>
<path d="M6.07054 12.5007C6.39728 12.5007 6.71564 12.5007 7.04238 12.5007C7.64559 12.509 8.07286 12.9179 8.08124 13.5188C8.08962 14.0111 8.08962 14.4951 8.08124 14.9875C8.07286 15.5716 7.65396 15.9889 7.06751 15.9972C6.39728 16.0056 5.72704 16.0056 5.06519 15.9972C4.50387 15.9889 4.08497 15.5633 4.0766 14.9958C4.06822 14.4951 4.06822 13.9944 4.0766 13.4937C4.08497 12.9263 4.50387 12.509 5.07357 12.5007C5.40031 12.4924 5.73542 12.5007 6.07054 12.5007ZM5.0987 13.5104C5.0987 14.0028 5.0987 14.4868 5.0987 14.9791C5.76056 14.9791 6.41403 14.9791 7.05913 14.9791C7.05913 14.4784 7.05913 13.9944 7.05913 13.5104C6.39728 13.5104 5.76056 13.5104 5.0987 13.5104Z" fill="#2B616D"/>
<path d="M12.0945 15.9972C11.7594 15.9972 11.4243 16.0056 11.0892 15.9972C10.5279 15.9805 10.109 15.5633 10.0922 14.9958C10.0838 14.4951 10.0838 13.9944 10.0922 13.4937C10.1006 12.9263 10.5195 12.509 11.0892 12.5007C11.7678 12.4924 12.4464 12.4924 13.125 12.5007C13.6696 12.509 14.0885 12.9346 14.1052 13.4771C14.1136 13.9861 14.1136 14.4951 14.1052 15.0042C14.0885 15.5633 13.6696 15.9722 13.0999 15.9889C12.7564 16.0056 12.4213 15.9972 12.0945 15.9972ZM11.1143 13.5188C11.1143 14.0278 11.1143 14.5035 11.1143 14.9875C11.7846 14.9875 12.4297 14.9875 13.0831 14.9875C13.0831 14.4868 13.0831 14.0028 13.0831 13.5188C12.4129 13.5188 11.7678 13.5188 11.1143 13.5188Z" fill="#2B616D"/>
<path d="M18.1264 15.9972C17.7996 15.9972 17.4813 16.0056 17.1545 15.9972C16.5513 15.9889 16.124 15.5716 16.1157 14.9791C16.1073 14.4868 16.1073 14.0028 16.1157 13.5104C16.124 12.9263 16.5429 12.509 17.1294 12.5007C17.7912 12.4924 18.4447 12.4924 19.1066 12.5007C19.7098 12.509 20.1203 12.9263 20.1287 13.5355C20.1371 14.0111 20.1371 14.4951 20.1287 14.9708C20.1203 15.5716 19.7014 15.9889 19.0982 15.9972C18.7715 16.0056 18.4447 15.9972 18.1264 15.9972ZM17.1378 13.5188C17.1378 14.0278 17.1378 14.5118 17.1378 14.9875C17.808 14.9875 18.4447 14.9875 19.1066 14.9875C19.1066 14.4951 19.1066 14.0111 19.1066 13.5188C18.4447 13.5188 17.7996 13.5188 17.1378 13.5188Z" fill="#2B616D"/>
<path d="M24.133 15.9972C23.8231 15.9972 23.5047 15.9972 23.1947 15.9972C22.5664 15.9889 22.1475 15.58 22.1391 14.9625C22.1307 14.4868 22.1307 14.0028 22.1391 13.5271C22.1475 12.9263 22.5664 12.509 23.1696 12.5007C23.8147 12.4924 24.4682 12.4924 25.1133 12.5007C25.7332 12.509 26.1437 12.9263 26.1521 13.5522C26.1605 14.0195 26.1605 14.4868 26.1521 14.9541C26.1437 15.58 25.7332 15.9889 25.1049 15.9972C24.7781 16.0056 24.4514 15.9972 24.133 15.9972ZM25.13 13.5271C24.443 13.5271 23.7979 13.5271 23.1528 13.5271C23.1528 14.0278 23.1528 14.5035 23.1528 14.9875C23.8231 14.9875 24.4682 14.9875 25.13 14.9875C25.13 14.4868 25.13 14.0195 25.13 13.5271Z" fill="#2B616D"/>
<path d="M6.07013 16.9986C6.39687 16.9986 6.71523 16.9986 7.04197 16.9986C7.64518 17.007 8.07245 17.4159 8.08083 18.0167C8.08921 18.509 8.08921 18.993 8.08083 19.4854C8.07245 20.0695 7.65355 20.4868 7.0671 20.4951C6.40524 20.5035 5.75177 20.5035 5.08991 20.4951C4.4867 20.4868 4.07618 20.0695 4.06781 19.4604C4.05943 18.9847 4.05943 18.5007 4.06781 18.025C4.07618 17.4242 4.4867 17.007 5.09829 16.9986C5.42503 16.9986 5.74339 16.9986 6.07013 16.9986ZM7.05872 19.4854C7.05872 18.9764 7.05872 18.5007 7.05872 18.025C6.38849 18.025 5.73501 18.025 5.08991 18.025C5.08991 18.5257 5.08991 19.0014 5.08991 19.4854C5.75177 19.4854 6.39687 19.4854 7.05872 19.4854Z" fill="#2B616D"/>
<path d="M12.1024 16.9986C12.4375 16.9986 12.7726 16.9903 13.1077 16.9986C13.6774 17.0153 14.0963 17.4242 14.1047 17.9917C14.1131 18.5007 14.1131 19.0097 14.1047 19.5188C14.0879 20.0695 13.669 20.4784 13.1161 20.4868C12.4375 20.4951 11.7589 20.4951 11.0803 20.4868C10.5273 20.4784 10.1084 20.0612 10.1 19.5104C10.0917 19.0014 10.0917 18.4923 10.1 17.9833C10.1084 17.4159 10.5273 17.0069 11.1054 16.9986C11.4321 16.9986 11.7672 16.9986 12.1024 16.9986ZM13.091 18.025C12.4123 18.025 11.7672 18.025 11.1221 18.025C11.1221 18.5257 11.1221 19.0097 11.1221 19.4854C11.7924 19.4854 12.4291 19.4854 13.091 19.4854C13.091 18.993 13.091 18.5174 13.091 18.025Z" fill="#2B616D"/>
<path d="M6.07013 25.0014C5.73501 25.0014 5.39989 25.0097 5.06478 25.0014C4.49508 24.9847 4.07618 24.5675 4.06781 24.0083C4.05943 23.5076 4.05943 23.007 4.06781 22.5063C4.07618 21.9221 4.50346 21.5132 5.08991 21.5049C5.75177 21.4965 6.40524 21.4965 7.0671 21.5049C7.65355 21.5132 8.07245 21.9305 8.08083 22.5146C8.08921 23.0069 8.08921 23.491 8.08083 23.9833C8.07245 24.5841 7.65355 24.993 7.04197 25.0014C6.71523 25.0014 6.39687 25.0014 6.07013 25.0014ZM7.05872 23.9833C7.05872 23.4826 7.05872 22.9986 7.05872 22.5229C6.38849 22.5229 5.73501 22.5229 5.08991 22.5229C5.08991 23.0236 5.08991 23.4993 5.08991 23.9833C5.74339 23.9833 6.38849 23.9833 7.05872 23.9833Z" fill="#2B616D"/>
<path d="M12.0945 25.0014C11.7594 25.0014 11.4243 25.0097 11.0892 25.0014C10.5195 24.9847 10.1006 24.5758 10.0922 24.0083C10.0838 23.4993 10.0838 22.9903 10.0922 22.4812C10.109 21.9305 10.5279 21.5215 11.0808 21.5132C11.7594 21.5049 12.438 21.5049 13.1166 21.5132C13.6696 21.5215 14.0885 21.9388 14.0969 22.4896C14.1136 23.0069 14.1136 23.5327 14.0969 24.0501C14.0801 24.5841 13.6612 24.9847 13.125 25.0097C12.7899 25.0097 12.4464 25.0014 12.0945 25.0014ZM11.1059 23.975C11.7846 23.975 12.438 23.975 13.0748 23.975C13.0748 23.4743 13.0748 22.9903 13.0748 22.5146C12.4045 22.5146 11.7594 22.5146 11.1059 22.5146C11.1059 23.0069 11.1059 23.4826 11.1059 23.975Z" fill="#2B616D"/>
<path d="M17.1292 18C17.1292 18.5174 17.1292 18.993 17.1292 19.4687C17.2046 19.5021 17.2717 19.5188 17.3387 19.5522C17.5565 19.669 17.6654 19.8526 17.6068 20.0946C17.5481 20.3449 17.3722 20.4868 17.1125 20.4951C16.6182 20.5118 16.1407 20.0779 16.1239 19.5605C16.1071 19.0181 16.1071 18.4757 16.1239 17.9332C16.1407 17.4159 16.5595 17.0153 17.0874 16.9986C17.7576 16.9819 18.4278 16.9903 19.098 16.9986C19.4164 16.9986 19.6342 17.2072 19.6342 17.491C19.6342 17.783 19.4164 17.9917 19.0813 17.9917C18.4278 18.0083 17.7911 18 17.1292 18Z" fill="#2B616D"/>
<path d="M22.6843 25.3435C22.7765 25.2184 22.8268 25.1099 22.9106 25.0348C24.0583 23.8832 25.2145 22.7399 26.3623 21.5883C26.4293 21.5216 26.4963 21.4548 26.5633 21.3964C26.7895 21.2211 27.0576 21.2295 27.2419 21.4298C27.4346 21.63 27.4346 21.8554 27.2754 22.0807C27.2252 22.1474 27.1665 22.2058 27.1079 22.2643C25.7842 23.5828 24.4605 24.9013 23.1451 26.2197C22.7514 26.612 22.5419 26.6203 22.1482 26.2281C21.5114 25.5939 20.8663 24.968 20.2548 24.3255C20.1291 24.1919 20.0285 23.9499 20.0537 23.783C20.1207 23.3741 20.5982 23.2823 20.9334 23.5994C21.4863 24.1419 22.0476 24.701 22.6843 25.3435Z" fill="#2B616D"/>
</svg>
