<svg width="30" height="30" viewBox="0 0 30 30" fill="none" xmlns="http://www.w3.org/2000/svg">
<path d="M28.9978 10.0223C19.6406 10.0223 10.3334 10.0223 1.00118 10.0223C1.00118 10.1475 1.00118 10.2643 1.00118 10.3728C1.00118 15.3547 1.00118 20.3283 1.00118 25.3102C1.00118 26.4117 1.60219 27.0042 2.69568 27.0042C7.18649 27.0042 11.6773 27.0042 16.1598 27.0042C16.2433 27.0042 16.3267 27.0042 16.4102 27.0042C16.7691 27.0126 16.9945 27.2129 16.9945 27.5133C16.9862 27.8053 16.7691 27.9973 16.4269 27.9973C15.8259 28.0056 15.2165 27.9973 14.6155 27.9973C10.6506 27.9973 6.67731 27.9973 2.71237 27.9973C1.04292 27.9973 0.00786261 26.9625 0.00786261 25.2935C0.00786261 18.7678 0.00786261 12.2337 0.00786261 5.70799C-0.000484635 4.04735 1.03457 3.00423 2.68733 3.00423C3.44693 3.00423 4.20653 3.00423 4.99952 3.00423C4.99952 2.70381 4.99952 2.42843 4.99952 2.15305C4.99952 0.909656 5.83424 0.00840432 6.99451 0.00840432C8.16312 0.00840432 8.99785 0.909656 9.00619 2.16974C9.00619 2.43678 9.00619 2.70381 9.00619 2.98754C10.3418 2.98754 11.6523 2.98754 13.0045 2.98754C13.0045 2.6454 12.9962 2.29491 13.0045 1.94443C13.0296 0.96807 13.7474 0.166958 14.7324 0.0167492C15.6673 -0.125114 16.6022 0.45903 16.8943 1.37697C16.9611 1.58559 16.9862 1.80256 16.9945 2.01953C17.0112 2.32829 17.0029 2.6454 17.0029 2.97085C18.3384 2.97085 19.6489 2.97085 21.0012 2.97085C21.0012 2.66209 21.0012 2.34498 21.0012 2.03622C21.0095 0.876276 21.8776 -0.00828552 22.9962 -0.00828552C24.1147 -0.00828552 24.9828 0.876276 24.9995 2.03622C24.9995 2.34498 24.9995 2.65374 24.9995 2.99589C25.7758 2.99589 26.5271 2.99589 27.27 2.99589C28.9645 2.99589 29.9995 4.02231 29.9995 5.71633C29.9995 9.88879 29.9995 14.0696 29.9995 18.2421C29.9995 18.2754 29.9995 18.3005 29.9995 18.3339C29.9995 18.7511 29.8159 18.9848 29.4987 18.9848C29.1815 18.9848 28.9978 18.7511 28.9978 18.3339C28.9978 15.6885 28.9978 13.0432 28.9978 10.3978C28.9978 10.2893 28.9978 10.1642 28.9978 10.0223ZM12.9962 4.03066C11.6439 4.03066 10.3251 4.03066 8.99785 4.03066C8.99785 4.36445 8.99785 4.67322 8.99785 4.99032C8.98115 6.12523 8.11304 7.00979 7.00285 7.00979C5.89267 7.00979 5.01621 6.13358 4.99952 4.99867C4.99117 4.68156 4.99952 4.35611 4.99952 4.00562C4.1481 4.00562 3.33007 3.99728 2.51204 4.00562C1.65227 4.01397 1.00953 4.65653 1.00118 5.51605C0.992838 6.27544 1.00118 7.03483 1.00118 7.79422C1.00118 8.18643 1.00118 8.57864 1.00118 8.98754C10.3501 8.98754 19.6656 8.98754 28.9895 8.98754C28.9895 7.76084 29.0229 6.55917 28.9812 5.34915C28.9561 4.60646 28.2967 4.03066 27.5371 4.00562C27.2115 3.99728 26.8943 4.00562 26.5688 4.00562C26.0513 4.00562 25.5337 4.00562 24.9995 4.00562C24.9995 4.33107 24.9995 4.62315 24.9995 4.91522C24.9912 6.10854 24.1481 7.00145 23.0129 7.00979C21.8693 7.00979 21.0012 6.11689 21.0012 4.90687C21.0012 4.60646 21.0012 4.31438 21.0012 4.01397C19.6489 4.01397 18.3384 4.01397 17.0029 4.01397C17.0029 4.3728 17.0112 4.71494 17.0029 5.04874C16.9695 6.13358 16.0847 6.9931 14.9995 6.9931C13.9144 6.9931 13.0379 6.12523 13.0045 5.04039C12.9962 4.71494 12.9962 4.38114 12.9962 4.03066ZM7.99618 3.48824C7.99618 2.99589 8.00452 2.51188 7.99618 2.01953C7.98783 1.43539 7.54542 1.00145 6.99451 1.00145C6.43524 1.00145 6.00953 1.44373 6.00118 2.02788C5.99284 3.00423 5.99284 3.98893 6.00118 4.96529C6.00118 5.54943 6.43524 5.99171 6.98616 6.00006C7.55377 6.0084 7.98783 5.55778 7.99618 4.95694C8.00452 4.47294 7.99618 3.98059 7.99618 3.48824ZM13.9978 3.50493C13.9978 3.98059 13.9978 4.46459 13.9978 4.94025C14.0062 5.54943 14.4236 6.00006 14.9912 6.00006C15.5588 6.00006 15.9928 5.55778 15.9928 4.95694C16.0012 3.98893 16.0012 3.02092 15.9928 2.05291C15.9928 1.44373 15.5504 1.00145 14.9828 1.00979C14.4152 1.01814 13.9978 1.46042 13.9895 2.0696C13.9978 2.54526 13.9978 3.02927 13.9978 3.50493ZM21.9945 3.51327C21.9945 3.98059 21.9945 4.4479 21.9945 4.91522C21.9945 4.93191 21.9945 4.95694 21.9945 4.97363C22.0112 5.55778 22.4453 5.99171 22.9962 5.99171C23.5554 5.99171 23.9812 5.54943 23.9895 4.96529C23.9978 3.98893 23.9978 3.00423 23.9895 2.02788C23.9895 1.44373 23.5554 1.00145 23.0045 0.993105C22.4369 0.98476 22.0029 1.42704 21.9945 2.03622C21.9945 2.53692 21.9945 3.02927 21.9945 3.51327Z" fill="white"/>
<path d="M29.9999 23.516C29.9748 27.1377 27.045 30.0167 23.4223 29.9916C19.8496 29.9666 16.9698 27.0042 17.0032 23.3825C17.0366 19.8442 19.9915 16.9736 23.5808 16.9986C27.1201 17.032 30.0166 19.9777 29.9999 23.516ZM28.9982 23.4993C28.9899 20.4701 26.5274 18 23.5224 18C20.4423 18 17.9882 20.4618 17.9965 23.541C18.0049 26.5452 20.484 28.9986 23.5141 28.9986C26.5274 28.9986 29.0066 26.5118 28.9982 23.4993Z" fill="white"/>
<path d="M5.99291 12.5007C6.31845 12.5007 6.63564 12.5007 6.96119 12.5007C7.56219 12.509 7.9879 12.9179 7.99624 13.5188C8.00459 14.0111 8.00459 14.4951 7.99624 14.9875C7.9879 15.5716 7.57053 15.9889 6.98623 15.9972C6.31845 16.0056 5.65067 16.0056 4.99124 15.9972C4.43197 15.9889 4.01461 15.5633 4.00626 14.9958C3.99791 14.4951 3.99791 13.9944 4.00626 13.4937C4.01461 12.9263 4.43197 12.509 4.99958 12.5007C5.32513 12.4924 5.65902 12.5007 5.99291 12.5007ZM5.02462 13.5104C5.02462 14.0028 5.02462 14.4868 5.02462 14.9791C5.68406 14.9791 6.33514 14.9791 6.97788 14.9791C6.97788 14.4784 6.97788 13.9944 6.97788 13.5104C6.31845 13.5104 5.68406 13.5104 5.02462 13.5104Z" fill="white"/>
<path d="M11.9944 15.9972C11.6605 15.9972 11.3266 16.0056 10.9927 15.9972C10.4335 15.9805 10.0161 15.5633 9.99942 14.9958C9.99108 14.4951 9.99108 13.9944 9.99942 13.4937C10.0078 12.9263 10.4251 12.509 10.9927 12.5007C11.6689 12.4924 12.345 12.4924 13.0211 12.5007C13.5637 12.509 13.9811 12.9346 13.9978 13.4771C14.0061 13.9861 14.0061 14.4951 13.9978 15.0042C13.9811 15.5633 13.5637 15.9722 12.9961 15.9889C12.6538 16.0056 12.32 15.9972 11.9944 15.9972ZM11.0178 13.5188C11.0178 14.0278 11.0178 14.5035 11.0178 14.9875C11.6856 14.9875 12.3283 14.9875 12.9794 14.9875C12.9794 14.4868 12.9794 14.0028 12.9794 13.5188C12.3116 13.5188 11.6689 13.5188 11.0178 13.5188Z" fill="white"/>
<path d="M18.0047 15.9972C17.6792 15.9972 17.362 16.0056 17.0364 15.9972C16.4354 15.9889 16.0097 15.5716 16.0014 14.9791C15.993 14.4868 15.993 14.0028 16.0014 13.5104C16.0097 12.9263 16.4271 12.509 17.0114 12.5007C17.6708 12.4924 18.3219 12.4924 18.9813 12.5007C19.5823 12.509 19.9914 12.9263 19.9997 13.5355C20.0081 14.0111 20.0081 14.4951 19.9997 14.9708C19.9914 15.5716 19.574 15.9889 18.973 15.9972C18.6475 16.0056 18.3219 15.9972 18.0047 15.9972ZM17.0197 13.5188C17.0197 14.0278 17.0197 14.5118 17.0197 14.9875C17.6875 14.9875 18.3219 14.9875 18.9813 14.9875C18.9813 14.4951 18.9813 14.0111 18.9813 13.5188C18.3219 13.5188 17.6792 13.5188 17.0197 13.5188Z" fill="white"/>
<path d="M23.99 15.9972C23.6811 15.9972 23.3639 15.9972 23.0551 15.9972C22.429 15.9889 22.0117 15.58 22.0033 14.9625C21.995 14.4868 21.995 14.0028 22.0033 13.5271C22.0117 12.9263 22.429 12.509 23.03 12.5007C23.6728 12.4924 24.3239 12.4924 24.9666 12.5007C25.5843 12.509 25.9933 12.9263 26.0017 13.5522C26.01 14.0195 26.01 14.4868 26.0017 14.9541C25.9933 15.58 25.5843 15.9889 24.9583 15.9972C24.6327 16.0056 24.3072 15.9972 23.99 15.9972ZM24.9833 13.5271C24.2988 13.5271 23.6561 13.5271 23.0133 13.5271C23.0133 14.0278 23.0133 14.5035 23.0133 14.9875C23.6811 14.9875 24.3239 14.9875 24.9833 14.9875C24.9833 14.4868 24.9833 14.0195 24.9833 13.5271Z" fill="white"/>
<path d="M5.99246 16.9986C6.31801 16.9986 6.6352 16.9986 6.96074 16.9986C7.56175 17.007 7.98746 17.4159 7.9958 18.0167C8.00415 18.509 8.00415 18.993 7.9958 19.4854C7.98746 20.0695 7.57009 20.4868 6.98579 20.4951C6.32635 20.5035 5.67527 20.5035 5.01584 20.4951C4.41483 20.4868 4.00582 20.0695 3.99747 19.4604C3.98912 18.9847 3.98912 18.5007 3.99747 18.025C4.00582 17.4242 4.41483 17.007 5.02418 16.9986C5.34973 16.9986 5.66692 16.9986 5.99246 16.9986ZM6.97744 19.4854C6.97744 18.9764 6.97744 18.5007 6.97744 18.025C6.30966 18.025 5.65857 18.025 5.01584 18.025C5.01584 18.5257 5.01584 19.0014 5.01584 19.4854C5.67527 19.4854 6.31801 19.4854 6.97744 19.4854Z" fill="white"/>
<path d="M12.0032 16.9986C12.3371 16.9986 12.671 16.9903 13.0049 16.9986C13.5725 17.0153 13.9899 17.4242 13.9982 17.9917C14.0065 18.5007 14.0065 19.0097 13.9982 19.5188C13.9815 20.0695 13.5641 20.4784 13.0132 20.4868C12.3371 20.4951 11.661 20.4951 10.9848 20.4868C10.4339 20.4784 10.0166 20.0612 10.0082 19.5104C9.99987 19.0014 9.99987 18.4923 10.0082 17.9833C10.0166 17.4159 10.4339 17.0069 11.0099 16.9986C11.3354 16.9986 11.6693 16.9986 12.0032 16.9986ZM12.9882 18.025C12.3121 18.025 11.6693 18.025 11.0266 18.025C11.0266 18.5257 11.0266 19.0097 11.0266 19.4854C11.6944 19.4854 12.3287 19.4854 12.9882 19.4854C12.9882 18.993 12.9882 18.5174 12.9882 18.025Z" fill="white"/>
<path d="M5.99246 25.0014C5.65857 25.0014 5.32468 25.0097 4.99079 25.0014C4.42318 24.9847 4.00582 24.5675 3.99747 24.0083C3.98912 23.5076 3.98912 23.007 3.99747 22.5063C4.00582 21.9221 4.43153 21.5132 5.01584 21.5049C5.67527 21.4965 6.32635 21.4965 6.98579 21.5049C7.57009 21.5132 7.98746 21.9305 7.9958 22.5146C8.00415 23.0069 8.00415 23.491 7.9958 23.9833C7.98746 24.5841 7.57009 24.993 6.96074 25.0014C6.6352 25.0014 6.31801 25.0014 5.99246 25.0014ZM6.97744 23.9833C6.97744 23.4826 6.97744 22.9986 6.97744 22.5229C6.30966 22.5229 5.65857 22.5229 5.01584 22.5229C5.01584 23.0236 5.01584 23.4993 5.01584 23.9833C5.66692 23.9833 6.30966 23.9833 6.97744 23.9833Z" fill="white"/>
<path d="M11.9944 25.0014C11.6605 25.0014 11.3266 25.0097 10.9927 25.0014C10.4251 24.9847 10.0078 24.5758 9.99942 24.0083C9.99108 23.4993 9.99108 22.9903 9.99942 22.4812C10.0161 21.9305 10.4335 21.5215 10.9844 21.5132C11.6605 21.5049 12.3367 21.5049 13.0128 21.5132C13.5637 21.5215 13.9811 21.9388 13.9894 22.4896C14.0061 23.0069 14.0061 23.5327 13.9894 24.0501C13.9727 24.5841 13.5553 24.9847 13.0211 25.0097C12.6872 25.0097 12.345 25.0014 11.9944 25.0014ZM11.0094 23.975C11.6856 23.975 12.3367 23.975 12.971 23.975C12.971 23.4743 12.971 22.9903 12.971 22.5146C12.3033 22.5146 11.6605 22.5146 11.0094 22.5146C11.0094 23.0069 11.0094 23.4826 11.0094 23.975Z" fill="white"/>
<path d="M17.0113 18C17.0113 18.5174 17.0113 18.993 17.0113 19.4687C17.0864 19.5021 17.1532 19.5188 17.2199 19.5522C17.437 19.669 17.5455 19.8526 17.4871 20.0946C17.4286 20.3449 17.2533 20.4868 16.9946 20.4951C16.5021 20.5118 16.0263 20.0779 16.0096 19.5605C15.9929 19.0181 15.9929 18.4757 16.0096 17.9332C16.0263 17.4159 16.4436 17.0153 16.9695 16.9986C17.6373 16.9819 18.3051 16.9903 18.9729 16.9986C19.2901 16.9986 19.5071 17.2072 19.5071 17.491C19.5071 17.783 19.2901 17.9917 18.9562 17.9917C18.3051 18.0083 17.6707 18 17.0113 18Z" fill="white"/>
<path d="M22.5458 25.3435C22.6376 25.2184 22.6877 25.1099 22.7712 25.0348C23.9147 23.8832 25.0667 22.7399 26.2102 21.5883C26.277 21.5216 26.3438 21.4548 26.4106 21.3964C26.636 21.2211 26.9031 21.2295 27.0867 21.4298C27.2787 21.63 27.2787 21.8554 27.1201 22.0807C27.07 22.1474 27.0116 22.2058 26.9531 22.2643C25.6343 23.5828 24.3154 24.9013 23.0049 26.2197C22.6126 26.612 22.4039 26.6203 22.0116 26.2281C21.3772 25.5939 20.7344 24.968 20.1251 24.3255C19.9999 24.1919 19.8997 23.9499 19.9248 23.783C19.9915 23.3741 20.4673 23.2823 20.8012 23.5994C21.3521 24.1419 21.9114 24.701 22.5458 25.3435Z" fill="white"/>
</svg>
