<svg width="27" height="32" viewBox="0 0 27 32" fill="none" xmlns="http://www.w3.org/2000/svg">
<path fill-rule="evenodd" clip-rule="evenodd" d="M3.30169 21.5066C1.2954 18.7488 0 15.9293 0 12.8018C2.93835 12.9404 7.74081 14.9279 9.27318 17.2543C7.1563 18.1633 4.5971 20.536 3.55446 21.8456L3.30169 21.5066Z" fill="#BDDAD3"/>
<path fill-rule="evenodd" clip-rule="evenodd" d="M26.2556 12.6953V12.8032C26.2556 15.4377 25.3394 17.8874 23.8544 20.2755C22.0535 20.4758 19.4153 20.7377 17.3774 21.2461C13.6808 22.1705 9.88936 23.7574 6.76144 25.5754L5.21327 23.8653H5.19748C5.10269 23.742 4.99211 23.6342 4.89732 23.5109C4.80254 23.3877 4.69195 23.2798 4.59717 23.1566C10.1895 17.1325 19.0362 13.3116 24.281 12.7877C24.9918 12.7261 25.6553 12.6953 26.2556 12.6953ZM22.7012 21.9702C15.7819 21.7853 8.24641 27.1161 8.24641 27.1161C9.81037 28.703 11.4691 30.3207 13.1279 32.0001C16.6507 28.6106 20.1894 25.3597 22.7012 21.9702Z" fill="#3D626F"/>
<path fill-rule="evenodd" clip-rule="evenodd" d="M14.4232 0C17.0298 0.24651 19.431 1.23255 21.3741 2.74242L17.5985 6.42465C16.6664 5.80838 15.5922 5.37699 14.4232 5.19211V0ZM17.3773 11.3857L10.6476 15.1757V7.58017L17.3773 11.3857ZM23.2066 4.48339L19.4468 8.15022C20.1577 9.05922 20.6632 10.1223 20.9002 11.2932H26.2556C25.9396 8.72027 24.8496 6.36303 23.2066 4.48339ZM0 11.2932C0.315951 8.72027 1.40598 6.36303 3.04893 4.48339L6.80875 8.15022C6.09786 9.05922 5.59234 10.1223 5.35538 11.2932H0ZM4.89725 2.74242L8.67287 6.42465C9.60493 5.80838 10.6792 5.37699 11.8482 5.19211V0C9.22578 0.24651 6.84035 1.23255 4.89725 2.74242Z" fill="#D88A63"/>
</svg>

