<svg width="62" height="63" viewBox="0 0 62 63" fill="none" xmlns="http://www.w3.org/2000/svg">
<path d="M1.59313 62.1564C0.960333 61.785 0.765625 61.2199 0.765625 60.4933C0.781851 54.3253 0.781851 48.1572 0.781851 42.0053C0.781851 40.8589 1.21994 40.423 2.35574 40.423C4.46507 40.423 6.5744 40.4068 8.66751 40.4391C9.31654 40.4552 9.86821 40.2776 10.4361 39.987C11.8477 39.2604 13.2918 38.5661 14.7684 37.9525C15.6283 37.5973 16.5694 37.4358 17.4943 37.1775C17.4456 36.9837 17.3969 36.7899 17.3482 36.5962C16.1313 31.9621 16.326 27.3603 18.0622 22.9038C22.3944 11.7949 34.2229 6.07892 45.6944 9.53431C49.7022 10.7453 53.0771 12.9574 55.8517 16.0737C56.3871 16.6712 56.3871 17.317 55.9166 17.8014C55.3649 18.3666 54.6023 18.2858 53.9208 17.5592C48.0309 11.2297 39.5936 9.27597 31.5619 12.36C22.0212 16.0253 16.7803 26.9566 19.8632 36.6608C19.9768 37.016 20.1228 37.1936 20.5122 37.2259C22.3295 37.3874 24.017 37.9848 25.7044 38.6145C26.1101 38.7598 26.5644 38.8729 26.9863 38.8729C29.7122 38.9052 32.4543 38.8083 35.1802 38.9536C38.977 39.1474 41.2973 43.2648 39.6423 46.6879C39.5449 46.8816 39.4638 47.0754 39.3177 47.366C39.7072 47.2692 39.9992 47.2046 40.2913 47.1238C45.0616 45.7675 49.8157 44.4273 54.5698 43.071C54.7483 43.0226 54.9268 42.8773 55.0404 42.7319C57.8961 38.8567 59.2266 34.5133 58.967 29.7015C58.9183 28.765 58.7398 27.8285 58.6263 26.892C58.5451 26.23 58.9508 25.6649 59.5673 25.5357C60.2488 25.4065 60.8167 25.7617 60.9952 26.4238C61.0276 26.5529 61.0601 26.6983 61.0925 26.8436C62.0661 32.5111 61.0276 37.8072 58.0097 42.7158C57.8799 42.9257 57.7338 43.1517 57.604 43.3455C57.6852 43.4101 57.7014 43.4424 57.7501 43.4585C59.7621 44.4919 60.8329 46.1389 60.7031 48.3833C60.5571 50.773 59.2266 52.3392 56.9226 53.1304C51.5194 54.9873 46.1001 56.8119 40.7131 58.7333C37.3382 59.9443 33.9146 60.6063 30.345 60.1704C25.2501 59.5568 20.1715 58.7818 15.0766 58.1036C13.7624 57.926 12.4481 57.9098 11.0689 57.8291C11.0689 58.8463 11.0365 59.686 11.0851 60.5256C11.1338 61.2684 10.8904 61.8173 10.2089 62.1564C7.35323 62.1564 4.4813 62.1564 1.59313 62.1564ZM11.3772 55.4717C15.0929 55.3587 18.695 56.2306 22.3457 56.6665C25.1203 56.9895 27.8787 57.4577 30.6533 57.7645C33.8984 58.1197 36.9975 57.4739 40.0479 56.392C45.4348 54.4706 50.8542 52.6622 56.2573 50.7891C57.6527 50.3047 58.4802 49.0937 58.2855 47.802C58.0259 46.042 56.4196 45.0248 54.651 45.5253C52.2334 46.2035 49.832 46.8978 47.4306 47.5921C45.1265 48.2541 42.8063 48.9161 40.486 49.562C40.1777 49.6427 39.8532 49.7073 39.5287 49.7073C35.1315 49.7235 30.7344 49.7073 26.3372 49.7073C25.526 49.7073 25.0392 49.3682 24.9094 48.7547C24.7471 47.9312 25.2988 47.2853 26.2237 47.2853C28.0409 47.2692 29.8744 47.2853 31.6917 47.2853C32.7301 47.2853 33.7523 47.3015 34.7908 47.2853C36.4134 47.253 37.7276 45.9613 37.7763 44.3628C37.825 42.8127 36.6081 41.3918 35.0017 41.3272C32.5192 41.2464 30.0205 41.2626 27.5379 41.2949C26.4508 41.311 25.4286 41.1657 24.4226 40.7136C20.5609 38.9859 16.7641 39.1958 13.0647 41.2464C12.4156 41.6017 11.5394 41.8439 11.1825 42.3929C10.858 42.8934 11.0851 43.7492 11.0851 44.4596C11.0851 47.8827 11.0851 51.3058 11.0851 54.7289C11.0851 54.9388 11.0851 55.1649 11.0851 55.3909C11.2312 55.4555 11.2961 55.4717 11.3772 55.4717ZM7.88868 42.8288C6.36347 42.8288 4.82203 42.8288 3.24815 42.8288C3.24815 48.4802 3.24815 54.0669 3.24815 59.7021C5.03297 59.7021 6.80156 59.7021 8.61883 59.7021C8.61883 54.0992 8.61883 48.4963 8.61883 42.8288C8.35922 42.8288 8.11584 42.8288 7.88868 42.8288Z" fill="#2B616D"/>
<path d="M43.1301 27.7316C43.1301 26.4399 43.049 25.1482 43.1463 23.8726C43.2924 21.9027 44.7527 20.3042 46.6997 19.9651C47.5435 19.8198 48.4359 19.8521 49.2958 19.8521C51.6972 19.8843 53.6605 21.8058 53.7092 24.1955C53.7417 26.5529 53.7417 28.9104 53.7092 31.2678C53.6768 33.2538 52.3138 34.9815 50.3667 35.4336C49.5068 35.6274 48.5981 35.6274 47.722 35.6112C44.9474 35.5466 43.1301 33.6898 43.0814 30.9287C43.0652 29.863 43.0814 28.7973 43.0814 27.7316C43.0977 27.7316 43.1139 27.7316 43.1301 27.7316ZM51.2916 24.5023C51.2916 23.0975 50.4479 22.2741 49.02 22.2579C48.5495 22.2579 48.0951 22.2418 47.6246 22.2579C46.4401 22.2902 45.5964 23.0652 45.5315 24.2601C45.4828 25.1482 45.5153 26.0362 45.5153 26.9082C45.5153 28.2322 45.499 29.5562 45.5153 30.8964C45.5315 32.3657 46.3266 33.1731 47.8031 33.2054C48.3061 33.2215 48.8091 33.2215 49.3121 33.1892C50.4965 33.0923 51.2754 32.2689 51.2916 31.0902C51.3078 29.9599 51.2916 28.8296 51.2916 27.7155C51.2916 26.6337 51.2916 25.568 51.2916 24.5023Z" fill="#2B616D"/>
<path d="M38.2794 35.7727C38.685 35.482 39.0582 35.3044 39.3178 34.9976C39.6261 34.6263 39.5774 34.158 39.3016 33.7543C39.2042 33.609 39.0744 33.4798 38.9446 33.3507C34.8395 29.2656 30.7345 25.1804 26.6294 21.1115C26.3698 20.8531 25.9641 20.6432 25.6072 20.5625C25.1366 20.4656 24.7472 20.724 24.5038 21.1438C24.2604 21.5636 24.2929 21.9995 24.5687 22.4032C24.6823 22.5647 24.8283 22.71 24.9744 22.8553C29.047 26.9081 33.1196 30.9771 37.2085 35.0138C37.4681 35.3044 37.8413 35.482 38.2794 35.7727Z" fill="#2B616D"/>
<path d="M33.1016 23.5496C33.1016 21.6605 34.6592 20.0942 36.5738 20.0781C38.5047 20.0619 40.111 21.6443 40.0948 23.5658C40.0786 25.4711 38.5209 27.005 36.5901 27.005C34.6754 27.005 33.1016 25.4549 33.1016 23.5496ZM36.5738 24.583C37.1417 24.5992 37.6285 24.1471 37.661 23.5819C37.6934 23.0006 37.1904 22.5001 36.6063 22.5001C36.0384 22.5001 35.5679 22.9684 35.5516 23.5335C35.5354 24.0986 36.0059 24.5669 36.5738 24.583Z" fill="#2B616D"/>
<path d="M27.2621 29.3301C29.1767 29.314 30.7506 30.8479 30.7668 32.7532C30.7831 34.6908 29.2254 36.2732 27.2946 36.2732C25.3799 36.2732 23.8223 34.7231 23.8223 32.8178C23.8223 30.8964 25.3475 29.3463 27.2621 29.3301ZM28.333 32.834C28.3492 32.2527 27.9111 31.7844 27.3432 31.7683C26.7429 31.736 26.2561 32.2043 26.2561 32.8017C26.2561 33.3668 26.7267 33.8512 27.2783 33.8512C27.8462 33.8674 28.333 33.3991 28.333 32.834Z" fill="#2B616D"/>
<path d="M52.0059 8.51704C52.2655 8.83997 52.4764 9.2275 52.8171 9.45355C53.2228 9.72804 53.7745 9.6796 54.099 9.30823C55.0076 8.27484 55.8838 7.2253 56.7275 6.14348C57.0845 5.67522 56.906 4.99706 56.4517 4.62568C55.9974 4.25431 55.2997 4.22202 54.894 4.65798C53.9854 5.69137 53.1254 6.75705 52.2655 7.82273C52.1519 7.96805 52.1357 8.19411 52.087 8.38787C52.0708 8.43631 52.0383 8.4686 52.0059 8.51704Z" fill="#2B616D"/>
<path d="M23.5302 9.59889C24.6823 9.58274 25.2826 8.53321 24.7147 7.77431C23.9196 6.70863 23.0435 5.69139 22.1673 4.69029C21.7454 4.22204 21.0477 4.23818 20.5772 4.64185C20.1066 5.02937 19.9768 5.72368 20.3662 6.22423C21.1775 7.25762 22.0212 8.25871 22.8812 9.24366C23.0597 9.46972 23.4166 9.5343 23.5302 9.59889Z" fill="#2B616D"/>
<path d="M40.2443 3.12405C40.2443 2.57506 40.2605 2.04222 40.2443 1.49323C40.2118 0.766632 39.6926 0.249938 39.0111 0.266085C38.3621 0.282231 37.8428 0.782779 37.8266 1.47709C37.8104 2.59121 37.8104 3.68919 37.8266 4.80331C37.8428 5.51376 38.3621 5.98202 39.0273 5.98202C39.725 5.98202 40.228 5.49762 40.2443 4.75487C40.2605 4.20588 40.2443 3.67304 40.2443 3.12405Z" fill="#2B616D"/>
</svg>
