<svg width="55" height="55" viewBox="0 0 55 55" fill="none" xmlns="http://www.w3.org/2000/svg">
<path d="M0.000976562 27.6216C0.141858 26.6633 0.240476 25.7051 0.409534 24.7609C2.12829 15.0798 9.62321 7.1179 19.2173 4.96185C27.1348 3.18627 34.3198 4.8632 40.7158 9.8799C40.8004 9.95036 40.8708 10.0208 40.9694 10.0772C40.9976 10.0913 41.0398 10.0913 41.1244 10.0913C41.068 9.28804 41.0539 8.48481 40.9694 7.69567C40.8849 6.86425 41.1244 6.20193 41.7302 5.61007C43.3785 4.0036 44.9986 2.36894 46.6188 0.734287C47.0273 0.325623 47.4641 0.043786 48.0699 0.283348C48.6756 0.522909 48.8024 1.03022 48.8447 1.60798C48.887 2.39713 48.9292 3.18627 48.9856 4.08815C49.3519 3.72176 49.6618 3.42583 49.9718 3.1299C50.2535 2.84807 50.5353 2.55214 50.8311 2.28439C51.1693 1.97437 51.6201 1.97437 51.93 2.2703C52.254 2.56623 52.2681 3.04535 51.9441 3.39765C51.5074 3.87677 51.0284 4.32771 50.5775 4.77865C50.4508 4.90548 50.3381 5.0323 50.1549 5.22959C51.0425 5.28596 51.8455 5.31414 52.6344 5.39869C52.9725 5.44097 53.3529 5.51143 53.6065 5.70871C54.1982 6.13147 54.17 6.90652 53.5924 7.49838C52.5076 8.59754 51.4088 9.68262 50.3099 10.7818C49.7323 11.3595 49.1265 11.9373 48.5629 12.5433C48.0135 13.121 47.3654 13.3465 46.5624 13.2619C45.7453 13.1774 44.9282 13.1492 44.0688 13.0928C44.6887 13.9665 45.3086 14.7416 45.858 15.5871C49.211 20.7447 50.5071 26.3815 49.7182 32.4692C48.3375 43.1649 40.3214 51.7045 29.7834 53.762C28.7409 53.9592 27.6702 54.072 26.6136 54.227C25.5569 54.227 24.5003 54.227 23.4437 54.227C22.3026 54.0579 21.1473 53.9311 20.0203 53.7056C16.0897 52.9305 12.5676 51.2677 9.42597 48.7734C8.96106 48.407 8.87653 47.9702 9.15829 47.5897C9.45415 47.1811 9.91906 47.1529 10.4121 47.5334C12.9621 49.5344 15.7797 50.9577 18.9073 51.8173C29.2903 54.7061 40.6454 49.774 45.6326 40.2197C50.1972 31.4686 48.9433 20.8716 42.4909 13.727C42.3641 13.5861 42.2373 13.4451 42.1106 13.3183C40.9131 14.5161 39.7297 15.6998 38.5603 16.8836C39.1379 17.6586 39.7719 18.4337 40.3214 19.2651C42.2373 22.1821 43.2376 25.395 43.294 28.8898C43.308 29.5521 43.0263 29.9326 42.5332 29.9326C42.0401 29.9467 41.7302 29.5662 41.7161 28.918C41.6175 24.8736 40.2368 21.3366 37.6023 18.2787C37.5319 18.1941 37.4615 18.1236 37.4192 18.0814C36.2358 19.2792 35.0665 20.4488 33.8831 21.6325C38.3349 26.8042 37.2079 34.3856 32.3193 38.3173C27.6702 42.0516 20.936 41.7134 16.7236 37.4718C12.4972 33.2301 12.1873 26.4801 15.9488 21.858C19.9076 16.9822 27.4588 15.9253 32.6574 20.3924C33.8267 19.2228 34.996 18.0532 36.2217 16.8272C35.7004 16.4185 35.1651 15.9676 34.6016 15.5589C24.768 8.54118 10.7362 14.2484 8.56659 26.1419C6.87601 35.3862 12.9339 44.1231 22.1617 45.7437C30.7977 47.2656 39.3493 41.6007 41.2934 33.0469C41.3216 32.9201 41.3498 32.8074 41.378 32.6946C41.5329 32.1873 41.8992 31.9478 42.3641 32.0605C42.8009 32.1732 43.0122 32.5678 42.8995 33.1033C41.3921 40.4874 35.1651 46.2933 27.5856 47.3783C18.6396 48.6607 10.0318 43.179 7.46771 34.5688C4.35422 24.1972 10.6376 13.5297 21.2178 11.3314C26.9798 10.1336 32.1925 11.5287 36.743 15.263C36.9261 15.4039 37.0952 15.5589 37.2079 15.6576C38.4054 14.4598 39.5888 13.2619 40.8708 11.9796C39.7578 11.1623 38.6026 10.204 37.3487 9.41487C25.4301 2.08711 10.2008 6.46967 3.94567 18.9973C-0.153993 27.227 1.15621 37.4577 7.22821 44.4613C7.3691 44.6163 7.50998 44.7713 7.63677 44.9404C7.94671 45.335 7.93262 45.786 7.60859 46.0819C7.27048 46.3919 6.79148 46.3778 6.45336 45.9692C5.6926 45.025 4.90366 44.109 4.22743 43.0944C1.79018 39.501 0.423622 35.5271 0.0855057 31.2009C0.0714175 31.06 0.0291529 30.9331 0.000976562 30.7922C0.000976562 29.7353 0.000976562 28.6784 0.000976562 27.6216ZM31.4035 21.5339C28.0787 18.49 21.8799 18.0109 17.7944 22.1539C13.7933 26.1983 13.9201 32.6664 18.062 36.5981C22.1335 40.4592 28.6704 40.1915 32.4179 36.0203C36.3062 31.7082 35.4328 25.7051 32.6292 22.8021C31.4599 23.9718 30.2765 25.1555 29.0931 26.3392C30.516 29.228 30.1215 31.6659 27.9238 33.3006C25.9796 34.7379 23.2747 34.5688 21.4855 32.8919C19.7244 31.2291 19.4145 28.5234 20.767 26.4801C21.4432 25.4655 22.373 24.775 23.5423 24.4368C25.1061 23.9859 26.5572 24.2818 27.8251 25.1132C29.0508 23.8872 30.2201 22.7035 31.4035 21.5339ZM26.7403 26.3392C25.3034 25.395 23.3451 25.7473 22.2744 27.072C21.1614 28.453 21.26 30.4258 22.5139 31.68C23.7677 32.9342 25.7401 33.0328 27.1207 31.9196C28.445 30.8486 28.7831 28.918 27.8533 27.4525C27.163 28.143 26.4868 28.8335 25.8105 29.5099C25.2188 30.1017 24.8103 30.2004 24.4158 29.8199C24.0072 29.4394 24.0918 29.0026 24.6976 28.3825C25.3738 27.7061 26.0641 27.0297 26.7403 26.3392ZM42.7304 10.359C43.942 9.14713 45.0268 7.96341 46.2243 6.90652C47.1682 6.0751 47.7317 5.2155 47.3795 3.91905C47.2809 3.56675 47.3232 3.18627 47.295 2.81988C47.2809 2.69306 47.2527 2.58032 47.2105 2.38303C45.6749 3.91905 44.1956 5.39869 42.7304 6.89243C42.6177 7.01926 42.5332 7.23063 42.5473 7.39974C42.5755 8.3298 42.6459 9.27395 42.7304 10.359ZM51.8596 6.93471C50.8452 6.86425 49.9577 6.82197 49.0701 6.73742C48.732 6.70924 48.4925 6.80788 48.2389 7.04744C46.9146 8.40026 45.5622 9.72489 44.2238 11.0777C44.1252 11.1764 44.0265 11.3032 43.8716 11.4723C44.9141 11.5427 45.8721 11.6132 46.8301 11.6696C46.9851 11.6837 47.1823 11.5991 47.295 11.5005C48.7884 10.0067 50.2676 8.52709 51.8596 6.93471Z" fill="#2B616D"/>
</svg>
