<svg width="58" height="58" viewBox="0 0 58 58" fill="none" xmlns="http://www.w3.org/2000/svg">
<path d="M34.7922 18.7737C38.4558 18.7737 42.0243 18.7737 45.672 18.7737C45.672 18.5677 45.672 18.3618 45.672 18.1558C45.672 14.6706 45.672 11.2011 45.672 7.71585C45.672 7.46238 45.6562 7.11385 45.7989 6.98711C46.0685 6.74948 46.465 6.46432 46.7664 6.51185C47.0677 6.55937 47.4325 6.95543 47.5276 7.27227C47.6228 7.60495 47.7497 7.76338 48.0351 7.90596C50.7313 9.23669 53.4116 10.5833 56.0919 11.9299C56.2029 11.9774 56.2981 12.0408 56.4091 12.0883C56.8214 12.2784 57.0911 12.5794 57.0593 13.0547C57.0276 13.5299 56.7421 13.7834 56.3139 13.9577C53.9508 14.8924 51.5877 15.8429 49.2088 16.7934C49.0026 16.8726 48.8123 16.9518 48.6061 17.031C47.48 17.4905 47.48 17.4905 47.6228 18.8054C48.2254 18.8054 48.8281 18.8054 49.4308 18.8054C50.652 18.8054 51.8891 18.8054 53.1103 18.8054C55.4575 18.8212 57.0752 20.4213 57.0752 22.7659C57.0752 33.1108 57.0752 43.4399 57.0752 53.7848C57.0752 56.1136 55.4416 57.7136 53.0944 57.7295C42.4366 57.7295 31.763 57.7295 21.1053 57.7295C15.6495 57.7295 10.1779 57.7295 4.72211 57.7295C1.85149 57.6978 0.0751953 55.9393 0.0751953 53.0877C0.0751953 41.0952 0.0751953 29.0869 0.0751953 17.0944C0.0751953 14.2111 2.20041 12.0725 4.99173 12.1517C7.46585 12.215 9.4959 14.2428 9.55934 16.7142C9.5752 17.3796 9.55934 18.0449 9.55934 18.7578C10.6537 18.7578 11.7004 18.7578 12.7154 18.7578C10.162 12.0566 11.4149 6.41679 17.6478 2.45626C21.9775 -0.300274 27.5919 0.270044 31.5727 3.50184C33.8406 5.33953 35.2839 7.68417 35.9024 10.5357C36.5051 13.3715 36.1086 16.0964 34.7922 18.7737ZM9.5752 20.6906C9.5752 22.7817 9.5752 24.7937 9.5752 26.8056C9.5752 33.5861 9.5752 40.3665 9.5752 47.1469C9.5752 49.1747 8.24298 50.7589 6.27637 51.0124C5.6737 51.0916 5.05517 51.0441 4.43664 51.0599C3.02512 51.0758 1.97837 52.0738 1.96251 53.4046C1.94665 54.767 2.9934 55.7967 4.43664 55.7967C20.6612 55.7967 36.8857 55.7967 53.1103 55.7967C54.3632 55.7967 55.1562 55.0205 55.1562 53.769C55.1562 43.424 55.1562 33.095 55.1562 22.7501C55.1562 21.451 54.3949 20.6906 53.0785 20.6906C51.3974 20.6906 49.7163 20.6906 48.0351 20.6906C47.8924 20.6906 47.7338 20.7223 47.5911 20.7381C47.5911 22.0055 47.5911 23.2095 47.5911 24.4927C47.829 24.4927 48.0351 24.4927 48.2572 24.4927C49.6687 24.5085 50.4141 25.2373 50.4141 26.6472C50.4141 27.5027 50.4141 28.3423 50.4141 29.182C51.1436 29.4354 51.4291 29.784 51.3498 30.3226C51.2705 30.8929 50.9058 31.1305 50.1128 31.1305C49.4942 31.1305 48.8916 31.1147 48.273 31.1464C48.0351 31.1622 47.7655 31.2256 47.5752 31.3682C44.5143 33.6019 41.4533 35.8515 38.3924 38.1011C38.2179 38.2278 38.0752 38.4971 38.0752 38.7189C37.9959 40.3507 36.7747 41.5864 35.1887 41.5705C33.6186 41.5547 32.4133 40.3031 32.3498 38.6714C32.3498 38.4496 32.2071 38.1645 32.0485 38.0536C30.0026 36.5644 27.9567 35.0752 25.879 33.6178C25.7363 33.5227 25.435 33.5069 25.2764 33.6019C24.3248 34.093 23.3732 34.1564 22.4375 33.6336C22.1203 33.4593 21.9458 33.5544 21.7079 33.7445C20.0426 35.0277 18.3774 36.2951 16.728 37.5783C15.5068 38.513 14.2856 39.4635 13.0643 40.3982C12.7313 40.6517 12.3189 40.8259 11.9859 40.5249C11.7321 40.3031 11.5101 39.9229 11.4942 39.6061C11.4942 39.3368 11.7797 39.0199 12.0176 38.8298C14.8724 36.6119 17.7588 34.4257 20.6136 32.2078C20.7881 32.0652 20.9784 31.7801 20.9625 31.5741C20.8356 29.8315 22.0251 28.3899 23.6745 28.3265C25.3874 28.2631 26.7196 29.6255 26.6244 31.3682C26.6086 31.7167 26.7196 31.9068 26.9892 32.0969C27.8457 32.6989 28.6862 33.3168 29.5426 33.9346C30.7956 34.8376 32.0326 35.7248 33.2855 36.6278C34.6019 35.6614 35.8866 35.6931 37.1553 36.6753C39.5977 34.8693 42.0401 33.0791 44.4825 31.289C43.864 31.1781 43.2931 31.1939 42.738 31.1622C42.2622 31.1464 41.9608 30.8771 41.8657 30.4176C41.7705 29.9424 41.9608 29.5622 42.4208 29.3562C42.5477 29.3087 42.6587 29.2612 42.8014 29.1978C42.8014 28.7384 42.8014 28.3106 42.8014 27.8671C42.8014 27.4076 42.8014 26.9641 42.8014 26.5046C42.8173 25.3323 43.5944 24.5561 44.7839 24.5244C45.0535 24.5244 45.3231 24.5244 45.6245 24.5244C45.6245 23.2253 45.6245 22.0055 45.6245 20.7223C45.3866 20.7223 45.1962 20.7223 45.0059 20.7223C41.3899 20.7223 37.758 20.7223 34.142 20.7064C33.7296 20.7064 33.46 20.8173 33.1904 21.1342C30.8114 23.8432 27.8139 25.3323 24.2138 25.4432C20.2805 25.5541 17.0134 24.0491 14.4124 21.1183C14.2538 20.944 14.0159 20.7381 13.8098 20.7381C12.43 20.6747 11.0502 20.6906 9.5752 20.6906ZM34.2689 13.1497C34.2847 7.36732 29.6219 2.67805 23.849 2.66221C18.1078 2.64637 13.3974 7.28811 13.3815 13.023C13.3498 18.8054 17.9967 23.5105 23.7697 23.5422C29.5426 23.558 34.253 18.9004 34.2689 13.1497ZM1.97837 49.8718C3.08856 49.143 4.23046 49.143 5.38822 49.143C7.00592 49.1589 7.68789 48.4618 7.68789 46.8301C7.68789 36.9921 7.68789 27.1383 7.68789 17.3004C7.68789 17.1103 7.68789 16.9043 7.68789 16.7142C7.56101 14.9399 5.8323 13.6884 4.10358 14.1478C2.7555 14.4963 1.97837 15.5894 1.97837 17.1261C1.97837 27.8195 1.97837 38.513 1.97837 49.2064C1.97837 49.3807 1.97837 49.5549 1.97837 49.8718ZM53.8081 12.8962C51.6829 11.8348 49.6687 10.8209 47.5911 9.79117C47.5911 11.7081 47.5911 13.4982 47.5911 15.3676C49.637 14.5597 51.6512 13.7517 53.8081 12.8962ZM44.7522 26.4096C44.7522 27.3443 44.7522 28.2631 44.7522 29.182C46.0209 29.182 47.2421 29.182 48.4792 29.182C48.4792 28.2314 48.4792 27.3126 48.4792 26.4096C47.2104 26.4096 46.0051 26.4096 44.7522 26.4096ZM24.7689 31.1781C24.8006 30.6711 24.3882 30.2275 23.8807 30.18C23.3573 30.1483 22.8815 30.5761 22.8657 31.0989C22.8498 31.6058 23.2622 32.0494 23.7856 32.0652C24.3089 32.0811 24.7371 31.685 24.7689 31.1781ZM35.2522 39.6695C35.7597 39.6536 36.1879 39.2259 36.172 38.7189C36.172 38.1803 35.7121 37.7526 35.1729 37.7842C34.6654 37.8159 34.253 38.2595 34.2847 38.7665C34.3006 39.2576 34.7288 39.6695 35.2522 39.6695Z" fill="#2B616D"/>
<path d="M45.6729 2.17118C45.6729 1.20481 45.9742 0.76123 46.6244 0.76123C47.2747 0.76123 47.576 1.22065 47.576 2.17118C47.576 3.18508 47.2747 3.62866 46.5927 3.59698C45.9425 3.58113 45.6729 3.16924 45.6729 2.17118Z" fill="#2B616D"/>
<path d="M51.2871 2.995C51.4139 3.09005 51.7787 3.21679 51.8897 3.47026C52.0166 3.73958 52.0166 4.18316 51.8739 4.43663C51.6518 4.81684 51.3029 5.14952 50.9223 5.37132C50.6844 5.5139 50.2403 5.52974 50.0024 5.38716C49.7645 5.26042 49.5584 4.88021 49.5108 4.59505C49.4156 4.04058 50.4941 3.01084 51.2871 2.995Z" fill="#2B616D"/>
<path d="M41.9607 2.995C42.7537 3.01084 43.7687 4.02473 43.7687 4.61089C43.7687 5.32378 42.9757 5.8149 42.3889 5.43469C41.9924 5.16537 41.6118 4.801 41.358 4.40495C41.2153 4.18316 41.2312 3.73957 41.358 3.4861C41.4849 3.21678 41.8338 3.07421 41.9607 2.995Z" fill="#2B616D"/>
<path d="M13.3652 44.2163C13.4445 44.1054 13.5873 43.7886 13.8093 43.6301C14.7133 42.9806 15.649 42.3944 16.5689 41.7766C16.9813 41.5073 17.3778 41.5073 17.7743 41.7766C18.3769 42.1885 18.9955 42.5687 19.5981 42.9964C19.8995 43.2182 20.1215 43.2341 20.4228 43.0123C20.9779 42.6004 21.5806 42.2519 22.1357 41.8558C22.6115 41.5073 23.0714 41.4914 23.5472 41.84C24.1499 42.2519 24.7526 42.6796 25.3869 43.044C25.5614 43.139 25.8786 43.139 26.0372 43.044C26.6874 42.6638 27.306 42.236 27.9245 41.8083C28.3527 41.5073 28.7651 41.5073 29.1933 41.8083C30.0814 42.4103 30.9696 42.9806 31.8577 43.5826C32.4128 43.9628 32.5238 44.4698 32.2066 44.945C31.8894 45.4361 31.3819 45.5154 30.811 45.151C30.1766 44.7391 29.5422 44.3272 28.9395 43.8995C28.6699 43.7093 28.4796 43.7093 28.21 43.8995C27.6232 44.3272 26.9888 44.7074 26.3861 45.1193C25.942 45.4203 25.5138 45.4361 25.0697 45.1193C24.4988 44.7232 23.8961 44.3747 23.3569 43.9628C22.9921 43.6777 22.7225 43.7093 22.3736 43.9787C21.8502 44.3747 21.2793 44.6916 20.7559 45.0718C20.2484 45.4361 19.7884 45.4203 19.2809 45.0559C18.71 44.644 18.1073 44.248 17.5046 43.8836C17.3302 43.7886 17.013 43.7886 16.8385 43.8836C16.1566 44.2797 15.5222 44.7708 14.8561 45.1827C14.1741 45.6104 13.3811 45.1827 13.3652 44.2163Z" fill="#2B616D"/>
<path d="M32.3824 48.9372C32.3824 49.9194 31.5894 50.363 30.9075 49.9511C30.2572 49.555 29.607 49.1273 28.9884 48.6679C28.6712 48.4461 28.4492 48.4619 28.1479 48.6837C27.5769 49.0956 26.9584 49.4758 26.3716 49.8719C25.9275 50.1887 25.4993 50.1729 25.0552 49.8719C24.4525 49.46 23.834 49.0639 23.2313 48.652C22.9617 48.4619 22.7714 48.4461 22.5018 48.652C21.9308 49.0639 21.3123 49.4442 20.7414 49.8402C20.2656 50.1887 19.8056 50.1887 19.3298 49.856C18.7747 49.46 18.1879 49.1273 17.6646 48.7313C17.2998 48.4461 17.0302 48.4778 16.6813 48.7471C16.1262 49.159 15.5394 49.5234 14.9525 49.9036C14.3816 50.2679 13.8741 50.2046 13.541 49.7293C13.208 49.2382 13.3348 48.7154 13.9058 48.3194C14.7781 47.7332 15.6504 47.1629 16.5227 46.5767C16.9667 46.2757 17.3949 46.2757 17.839 46.5767C18.4417 46.9886 19.0602 47.3688 19.6629 47.7966C19.9325 47.9867 20.1228 48.0025 20.3924 47.7966C20.9793 47.3688 21.6136 46.9886 22.2163 46.5767C22.6604 46.2757 23.0886 46.2599 23.5327 46.5767C24.1036 46.9728 24.6904 47.3213 25.2614 47.7332C25.5944 47.9708 25.8482 48.0184 26.1971 47.749C26.7363 47.3213 27.3549 46.9886 27.91 46.5926C28.354 46.2916 28.7823 46.2757 29.2263 46.5767C30.1145 47.1787 31.0185 47.749 31.8908 48.3669C32.1287 48.5095 32.2873 48.8105 32.3824 48.9372Z" fill="#2B616D"/>
<path d="M34.8565 30.0376C33.5243 31.2257 33.1278 31.3366 32.6362 30.8297C32.1604 30.3227 32.2873 29.9583 33.3499 28.7702C33.2388 28.6434 33.1437 28.5167 33.0168 28.39C32.2873 27.6454 32.1762 27.1384 32.6362 26.679C33.112 26.1879 33.6195 26.3146 34.3966 27.0592C34.4918 27.1543 34.6028 27.2493 34.8724 27.5028C35.0786 27.2335 35.2372 26.9325 35.4751 26.7107C35.9033 26.283 36.4584 26.283 36.8549 26.6632C37.2355 27.0434 37.2355 27.582 36.8073 28.0414C36.6011 28.2632 36.3315 28.4375 36.0777 28.6434C36.046 28.7385 36.0302 28.8177 35.9984 28.9128C36.2363 29.0553 36.4901 29.1821 36.6963 29.3722C37.2355 29.895 37.2831 30.4494 36.839 30.8613C36.4108 31.2732 35.8874 31.2257 35.3482 30.6871C35.1579 30.497 35.031 30.2593 34.8565 30.0376Z" fill="#2B616D"/>
<path d="M49.0987 39.5587C47.7348 40.7152 47.3859 40.8261 46.9101 40.335C46.4343 39.8597 46.5295 39.527 47.7031 38.1329C47.481 37.9586 47.2114 37.7844 46.9894 37.5626C46.5295 37.1032 46.5136 36.5487 46.926 36.1526C47.3224 35.7566 47.8775 35.7883 48.3375 36.2477C48.5436 36.4536 48.7022 36.7071 48.9877 37.0715C49.3208 36.6754 49.5111 36.4061 49.749 36.1843C50.1931 35.7724 50.7482 35.7883 51.1288 36.1843C51.4936 36.5645 51.4777 37.0873 51.0971 37.5151C50.8909 37.7527 50.6213 37.9428 50.3358 38.1963C50.6213 38.4973 50.8592 38.7191 51.0812 38.9567C51.5094 39.432 51.5094 39.9389 51.1288 40.335C50.7323 40.731 50.2089 40.731 49.749 40.3191C49.4952 40.0973 49.3208 39.828 49.0987 39.5587Z" fill="#2B616D"/>
<path d="M41.3895 47.258C40.3903 47.258 39.978 46.9886 39.978 46.3233C39.9621 45.6579 40.3903 45.3569 41.3736 45.3569C42.4045 45.3569 42.8327 45.6421 42.8169 46.3233C42.801 46.9886 42.3887 47.258 41.3895 47.258Z" fill="#2B616D"/>
<path d="M46.1635 45.3569C46.1952 45.3569 46.2428 45.3569 46.2745 45.3569C47.1468 45.3569 47.5591 45.6579 47.5591 46.3074C47.5591 46.957 47.1468 47.258 46.2745 47.258C46.0525 47.258 45.8463 47.2738 45.6243 47.258C45.0533 47.2104 44.7044 46.8302 44.7202 46.2916C44.7361 45.7688 45.0692 45.4203 45.6243 45.3727C45.7987 45.3569 45.989 45.3727 46.1635 45.3569C46.1635 45.3569 46.1635 45.3727 46.1635 45.3569Z" fill="#2B616D"/>
<path d="M50.8891 45.3569C51.8882 45.3569 52.3006 45.6262 52.3165 46.2916C52.3323 46.9728 51.9041 47.258 50.8732 47.258C50.7305 47.258 50.6036 47.258 50.4609 47.258C49.8423 47.2263 49.4775 46.8619 49.4775 46.3074C49.4775 45.753 49.8582 45.4044 50.4767 45.3727C50.6194 45.3569 50.7622 45.3569 50.8891 45.3569Z" fill="#2B616D"/>
<path d="M22.8824 9.75961C22.8824 8.71403 22.8824 7.66845 22.8824 6.62287C22.8824 5.92582 23.2471 5.51392 23.834 5.51392C24.4208 5.51392 24.7855 5.92582 24.7855 6.62287C24.7855 8.49224 24.7697 10.3775 24.8014 12.2468C24.8014 12.5003 24.9441 12.8172 25.1186 13.0073C25.8006 13.736 26.5301 14.4331 27.2438 15.1618C27.7355 15.6687 27.7672 16.2074 27.3548 16.6193C26.9425 17.0312 26.4032 16.9995 25.8957 16.5084C25.0234 15.6529 24.1353 14.7974 23.3106 13.9103C23.0885 13.6568 22.9299 13.2607 22.8982 12.9281C22.8348 11.8508 22.8824 10.8052 22.8824 9.75961Z" fill="#2B616D"/>
</svg>
