<svg width="40" height="56" viewBox="0 0 40 56" fill="none" xmlns="http://www.w3.org/2000/svg">
<path d="M20.0365 55.9055C17.4187 55.7671 15.2036 55.8286 13.035 55.521C6.56006 54.5826 1.32438 49.9832 0.317519 43.3072C-0.364049 38.8001 0.642812 34.7083 3.47752 31.1396C5.21242 28.9552 7.16418 26.9555 8.99202 24.8481C9.9679 23.7405 10.9438 22.6176 11.8267 21.4332C12.3069 20.7871 12.5857 19.9718 12.942 19.2334C13.0969 18.9258 13.035 18.7412 12.6942 18.5566C11.1297 17.6337 10.8044 15.7416 11.9816 14.3726C12.2295 14.0803 12.152 13.8649 12.0591 13.6034C11.2381 11.173 10.4016 8.74253 9.61163 6.2967C9.00751 4.42002 9.9679 2.78947 11.8422 2.42029C12.0436 2.37414 12.2604 2.37414 12.4773 2.37414C13.035 2.37414 13.5926 2.34337 14.1502 2.37414C14.7544 2.4049 15.1881 2.32799 15.5289 1.69731C15.9626 0.897412 16.7991 0.543613 17.7285 0.52823C18.9832 0.512847 20.2379 0.512847 21.4926 0.52823C22.5614 0.543613 23.3824 1.03586 23.8936 1.97419C24.064 2.28184 24.2344 2.37414 24.5597 2.37414C25.2722 2.35876 25.9847 2.35876 26.6973 2.37414C28.9744 2.38952 30.291 4.14314 29.6094 6.31208C28.9124 8.48102 28.1689 10.6346 27.4408 12.8035C27.3944 12.9266 27.3634 13.065 27.3014 13.1881C27.0536 13.7419 27.0536 14.1726 27.4718 14.7264C28.4167 15.9723 27.952 17.7413 26.5734 18.5566C26.2016 18.772 26.1706 18.9719 26.2946 19.3257C26.8367 20.9717 27.9055 22.2792 29.0363 23.556C31.05 25.8018 33.1412 27.9861 35.093 30.2935C37.0292 32.5855 38.4853 35.1698 38.9036 38.1848C40.2512 47.6297 34.4424 53.9981 26.8522 55.4287C24.5132 55.8286 22.0502 55.7517 20.0365 55.9055ZM14.9093 18.9566C14.615 20.5871 13.8404 21.9715 12.8181 23.2175C11.7803 24.4789 10.665 25.6788 9.58065 26.9094C8.20202 28.463 6.76143 29.9705 5.44477 31.5703C3.07477 34.4622 1.74262 37.7233 1.99046 41.5536C2.16085 44.1686 2.8734 46.5837 4.49987 48.6603C7.27261 52.2137 11.0522 53.7827 15.4824 53.9212C18.1622 53.9981 20.8575 53.9673 23.5373 53.9212C24.5906 53.9058 25.6595 53.7981 26.6973 53.5674C33.0483 52.2291 38.0361 47.0605 37.1532 38.9847C36.8743 36.385 35.7745 34.093 34.1636 32.1087C32.4442 29.9859 30.5698 28.0015 28.742 25.971C26.8677 23.879 24.9004 21.8485 24.2963 18.9719C23.7851 18.9719 23.2895 18.9719 22.7628 18.9719C22.8557 19.2488 22.9177 19.495 22.9951 19.7257C23.3979 20.9102 23.8006 22.0792 24.1879 23.2637C24.3583 23.7867 24.0949 24.2482 23.5993 24.402C23.1346 24.5558 22.6853 24.3559 22.4685 23.879C22.391 23.7098 22.3291 23.5252 22.2671 23.3406C21.8179 22.0177 21.3842 20.6794 20.9195 19.3565C20.8575 19.2027 20.7491 19.0489 20.6561 18.9104C20.5167 19.8641 20.5322 20.7717 20.5167 21.6639C20.5012 22.2331 20.145 22.5869 19.6183 22.6022C19.0761 22.6176 18.7044 22.2484 18.6579 21.6639C18.6424 21.4178 18.6579 21.1717 18.6579 20.9102C18.6579 20.2487 18.6579 19.6026 18.6579 18.9412C18.5959 18.9258 18.534 18.9104 18.472 18.895C18.3946 19.0489 18.3171 19.2027 18.2551 19.3565C17.9918 20.1256 17.744 20.8794 17.4806 21.6485C17.2328 22.3869 16.985 23.1406 16.7061 23.879C16.5202 24.3712 16.0401 24.5558 15.5753 24.3866C15.0952 24.2174 14.8628 23.7867 14.9867 23.2945C15.0332 23.1252 15.0952 22.9714 15.1571 22.8022C15.5753 21.5255 16.0091 20.2641 16.4428 18.9566C15.9316 18.9566 15.4514 18.9566 14.9093 18.9566ZM19.5718 13.4035C21.3222 13.4035 23.0881 13.4035 24.8385 13.4035C25.1018 13.4035 25.3032 13.4035 25.4116 13.0804C26.2171 10.6038 27.0691 8.14261 27.8745 5.66601C28.1534 4.80459 27.7196 4.22005 26.8057 4.20467C26.0312 4.18928 25.2567 4.22005 24.4822 4.18928C24.1724 4.18928 24.0485 4.28158 24.002 4.58923C23.8006 5.6814 23.5683 6.77356 23.3359 7.85034C23.181 8.55794 22.7628 8.89635 22.1897 8.77329C21.6165 8.63485 21.3842 8.17337 21.5236 7.45039C21.7869 6.14287 22.0502 4.81997 22.3136 3.51245C22.453 2.851 22.1277 2.37414 21.4771 2.35876C20.2224 2.32799 18.9677 2.32799 17.713 2.35876C17.0779 2.37414 16.7526 2.851 16.8765 3.4663C17.1399 4.81997 17.4187 6.17364 17.6975 7.52731C17.8369 8.20414 17.5736 8.65023 17.0159 8.77329C16.4583 8.89635 16.0401 8.57332 15.8852 7.89649C15.6528 6.80432 15.4204 5.72754 15.2191 4.63538C15.1571 4.25081 15.0022 4.1739 14.6459 4.18928C13.9953 4.20467 13.3293 4.18928 12.6787 4.18928C11.424 4.18928 11.0057 4.74306 11.393 5.89675C12.183 8.26567 12.9885 10.6192 13.763 12.9727C13.8714 13.3112 14.0418 13.4035 14.3826 13.4035C16.133 13.3881 17.8524 13.4035 19.5718 13.4035ZM19.5873 17.0799C21.4151 17.0799 23.2585 17.0799 25.0863 17.0799C25.7214 17.0799 26.1087 16.6953 26.1087 16.1416C26.0932 15.6185 25.7059 15.2494 25.1173 15.2494C21.4461 15.2494 17.7904 15.234 14.1193 15.2647C13.825 15.2647 13.4377 15.4801 13.2673 15.7262C12.8491 16.3415 13.3293 17.0799 14.1502 17.0799C15.9626 17.0953 17.775 17.0799 19.5873 17.0799Z" fill="#2B616D"/>
<path d="M31.6709 39.2C31.6709 45.7992 26.2494 51.1677 19.6041 51.1677C12.9588 51.1677 7.55273 45.7838 7.55273 39.1847C7.55273 32.5855 12.9743 27.217 19.6196 27.217C26.2649 27.217 31.6864 32.6009 31.6709 39.2ZM19.6351 29.0629C13.9966 29.0629 9.42705 33.6008 9.42705 39.2C9.42705 44.7685 13.9966 49.3218 19.5886 49.3372C25.227 49.3525 29.8276 44.8147 29.8276 39.2308C29.8276 33.6162 25.258 29.0629 19.6351 29.0629Z" fill="#2B616D"/>
<path d="M20.5792 38.2463C22.7788 38.9539 23.8166 40.1845 23.7857 42.015C23.7547 43.7687 22.6704 44.9993 20.5327 45.6453C20.5327 45.9376 20.5482 46.2606 20.5327 46.5683C20.5017 47.1221 20.1455 47.4759 19.6188 47.4759C19.0921 47.4759 18.7359 47.1374 18.7049 46.5683C18.6894 46.276 18.7049 45.9991 18.7049 45.6299C18.2402 45.6299 17.8064 45.6453 17.3727 45.6299C16.7066 45.6146 16.3504 45.2761 16.3504 44.707C16.3504 44.1225 16.7066 43.7994 17.3727 43.7994C17.791 43.7994 18.2092 43.7994 18.7049 43.7994C18.7049 43.1533 18.7049 42.538 18.7049 41.9381C18.7049 41.3382 18.7049 40.7537 18.7049 40.123C16.6447 39.6154 15.4055 38.4001 15.4829 36.2312C15.5604 34.2622 16.7841 33.1701 18.6584 32.724C18.8288 31.2165 18.9992 30.8781 19.6498 30.8934C20.3004 30.9088 20.4862 31.2626 20.5947 32.724C21.0284 32.724 21.4621 32.7086 21.8959 32.724C22.5309 32.7393 22.8717 33.0624 22.8872 33.6008C22.9027 34.1853 22.5464 34.5391 21.8959 34.5545C21.4776 34.5699 21.0594 34.5545 20.5947 34.5545C20.5792 35.8159 20.5792 37.0157 20.5792 38.2463ZM18.6894 38.1386C18.6894 37.0157 18.6894 35.9543 18.6894 34.8775C18.6894 34.8314 18.6584 34.7698 18.6429 34.7237C17.8684 34.8775 17.3263 35.539 17.3108 36.3543C17.2798 37.2157 17.791 37.9079 18.6894 38.1386ZM20.5792 43.661C21.4466 43.4456 21.9578 42.738 21.9423 41.892C21.9113 41.0767 21.3847 40.4152 20.5792 40.246C20.5792 41.369 20.5792 42.4919 20.5792 43.661Z" fill="#2B616D"/>
</svg>
