<svg width="40" height="40" viewBox="0 0 40 40" fill="none" xmlns="http://www.w3.org/2000/svg">
<path d="M23.3046 23.3494C23.3046 23.3494 21.1456 24.2827 23.3046 23.3494C25.4636 22.4161 25.6297 18.628 25.6297 18.628C25.7958 18.628 25.9618 18.628 26.1279 18.628C27.678 18.5731 28.7852 17.0359 28.2316 15.5536C28.0655 15.1144 28.0101 15.0046 28.0655 14.6752C27.8441 14.236 27.6226 13.7968 27.3458 13.4125C27.2905 13.687 27.2905 14.0164 27.2351 14.2909C26.6815 14.1811 26.1833 14.1262 25.6297 14.0164C25.6297 13.8517 25.6297 13.5772 25.6297 13.3576C25.5743 12.7537 25.2975 12.2596 24.91 11.8204C24.7993 11.7106 24.7439 11.6008 24.7439 11.4361C24.7993 10.5028 24.0243 9.67933 23.0832 9.62443C22.1421 9.51463 21.2563 10.2283 21.0903 11.1067C21.0903 11.2165 21.0903 11.2714 21.0903 11.3812C21.367 11.3812 21.6438 11.3812 21.976 11.3812C21.976 11.3263 22.0314 11.2165 22.0314 11.1616C22.1421 10.7224 22.5849 10.4479 23.0832 10.5028C23.5261 10.5577 23.8028 10.942 23.8582 11.3812C23.8582 11.8204 23.5814 12.2047 23.1385 12.3145C23.0278 12.3145 22.8617 12.3145 22.751 12.3145C21.0903 12.3145 19.4295 12.3145 17.7687 12.3145C16.5508 12.3145 15.8865 11.7655 15.6651 10.5577C15.6651 10.5577 15.6651 10.5028 15.6097 10.5028C15.3329 10.5028 15.0561 10.5028 14.724 10.5028C14.7793 10.7773 14.8347 11.0518 14.89 11.3263C14.89 11.4361 14.89 11.5459 14.8347 11.6008C14.115 12.2047 13.7829 12.9733 13.8382 13.9066C13.8382 13.9615 13.8382 14.0164 13.8382 14.0164C13.2293 14.1262 12.731 14.1811 12.2328 14.2909C12.0667 13.0282 11.7346 11.7655 12.1221 10.4479C12.7864 8.36173 14.6686 6.87943 16.9383 6.87943C20.2599 6.87943 23.5261 6.87943 26.8476 6.87943C27.2351 6.87943 27.4012 7.04413 27.4012 7.42843C27.4012 9.18523 27.3458 10.942 27.3458 12.6439C27.3458 12.9184 27.2905 13.1929 27.2905 13.4674C27.5673 13.8517 27.8441 14.2909 28.0101 14.7301C28.0101 14.6203 28.0655 14.5105 28.0655 14.3458L28.2869 8.25193C28.2869 7.97743 28.2869 7.70293 28.2869 7.42843C28.2869 6.55003 27.7333 6.00103 26.7922 6.00103C23.5261 6.00103 20.2045 6.00103 16.9383 6.00103C14.0597 5.94613 11.5685 8.08723 11.0703 10.9969C10.9042 11.8753 11.0703 12.7537 11.181 13.6321C11.2363 14.0713 11.2917 14.4556 11.3471 14.8948C11.3471 15.0046 11.3471 15.1144 11.2917 15.2242C10.4613 16.8163 11.5131 18.5731 13.34 18.628C13.4507 18.628 13.6168 18.628 13.7829 18.628C13.6721 20.6044 14.4472 22.1965 16.1633 23.2945C16.0526 23.3494 15.9972 23.4043 15.9419 23.4592C12.731 25.3807 11.1256 28.1806 11.0149 31.8589C11.0149 32.5726 11.0149 33.2863 11.0149 34C16.7169 34 22.4189 34 28.1209 34C28.8405 29.1139 26.903 24.9964 23.3046 23.3494ZM13.7275 17.6947C13.1185 17.7496 12.565 17.6398 12.1774 17.0908C11.8453 16.5967 11.8453 16.1026 12.1221 15.6634C12.4542 15.0595 13.0632 14.9497 13.7275 15.0046C13.7275 15.334 13.7275 15.6085 13.7275 15.9379C13.5061 15.7732 13.2846 15.6634 13.0632 15.5536C12.8971 15.7732 12.731 16.0477 12.565 16.2673C12.8418 16.432 13.1185 16.6516 13.3953 16.8163C13.7829 17.0908 13.8382 17.2006 13.7275 17.6947ZM14.6686 33.0667C14.6686 31.255 14.6686 29.4982 14.6686 27.6865C14.3364 27.6865 14.0597 27.6865 13.7275 27.6865C13.7275 29.4982 13.7275 31.255 13.7275 33.0667C13.1185 33.0667 12.5096 33.0667 11.956 33.0667C11.5685 29.608 13.0632 26.0395 16.5508 24.118C16.9383 24.7768 17.3258 25.4356 17.7687 26.1493C18.0455 25.8748 18.3223 25.6003 18.5437 25.3258C18.5991 25.3258 18.5991 25.3258 18.6545 25.3807C18.6545 25.4905 18.7098 25.6552 18.6545 25.765C18.1009 27.7414 17.5473 29.7178 16.9383 31.6942C16.883 31.9138 16.883 32.0236 17.1044 32.1334C17.4919 32.4079 17.8794 32.7373 18.3777 33.1216C17.1044 33.0667 15.8865 33.0667 14.6686 33.0667ZM17.4919 23.8984C17.8794 23.9533 18.2116 24.0082 18.5437 24.0631C18.3223 24.2827 18.1562 24.4474 17.9348 24.667C17.8241 24.3925 17.658 24.1729 17.4919 23.8984ZM18.1009 31.6942C18.0455 31.6393 17.9901 31.5295 17.9901 31.4197C18.4884 29.608 19.042 27.8512 19.5402 26.0395C19.5402 25.9846 19.6509 25.9297 19.7063 25.8748C19.7616 25.9297 19.817 25.9846 19.8724 26.0395C20.3706 27.8512 20.9242 29.608 21.4224 31.4197C21.4224 31.4746 21.4224 31.6393 21.367 31.6942C20.8135 32.1334 20.2599 32.5726 19.7063 33.0118C19.1527 32.5177 18.5991 32.1334 18.1009 31.6942ZM19.208 24.7219C19.4295 24.5572 19.5402 24.4474 19.7063 24.3376C19.817 24.4474 19.9277 24.5572 20.0938 24.7219C20.0384 24.8866 19.9277 25.0513 19.7063 24.9964C19.5402 24.8866 19.3741 24.7768 19.208 24.7219ZM26.0726 27.1375C27.4012 29.2786 27.5673 31.0354 27.4565 33.1216C26.8476 33.1216 26.294 33.1216 25.6851 33.1216C25.6851 32.1883 25.6851 31.3099 25.6851 30.4315C25.6851 29.5531 25.6851 28.6198 25.6851 27.7414C25.3529 27.7414 25.0761 27.7414 24.7993 27.7414C24.7993 29.5531 24.7993 31.3099 24.7993 33.1216C23.5814 33.1216 22.3635 33.1216 21.0903 33.1216C21.5331 32.7922 21.8653 32.4628 22.2528 32.1883C22.4742 32.0236 22.5296 31.8589 22.4742 31.5844C21.9206 29.6629 21.367 27.6865 20.8135 25.765C20.7581 25.6552 20.8135 25.4905 20.8135 25.3807C20.8688 25.3807 20.8688 25.3807 20.9242 25.3258C21.201 25.6003 21.4224 25.8748 21.6992 26.2042C22.1421 25.4905 22.5296 24.8317 22.9171 24.1729C24.1904 24.8317 25.2422 25.8199 26.0726 27.1375ZM20.8688 24.0631C21.1456 24.0082 21.4778 23.9533 21.8653 23.8984C21.6992 24.1729 21.5331 24.3925 21.4224 24.6121C21.2563 24.4474 21.0349 24.2278 20.8688 24.0631ZM24.6332 19.4515C24.5225 21.4828 22.8617 23.02 20.8135 23.1298C19.817 23.1847 18.8759 23.1847 17.8794 23.02C16.0526 22.7455 14.6686 21.0436 14.6686 19.2319C14.6686 17.3653 14.6686 15.4987 14.6686 13.687C14.6686 13.138 14.89 12.6439 15.3329 12.3145C15.7758 12.8086 16.3294 13.0831 16.9383 13.1929C17.1044 13.1929 17.3258 13.2478 17.4919 13.2478C19.1527 13.2478 20.8135 13.2478 22.4742 13.2478C23.1385 13.2478 23.7475 13.138 24.1904 12.589C24.4672 12.8635 24.6332 13.2478 24.6332 13.6321C24.6886 15.5536 24.7993 17.53 24.6332 19.4515ZM25.9619 16.8163C26.2386 16.6516 26.4601 16.4869 26.7369 16.3222C26.7369 16.3222 26.7369 16.3222 26.7922 16.2673C26.6262 16.0477 26.4601 15.7732 26.294 15.5536C26.0726 15.7183 25.8511 15.8281 25.6297 15.9928C25.6297 15.6634 25.6297 15.3889 25.6297 15.0595C26.2386 15.0046 26.7922 15.0595 27.1798 15.6085C27.5119 16.0477 27.5673 16.5967 27.2905 17.0908C26.9583 17.7496 26.3494 17.8594 25.6851 17.8045C25.519 17.2555 25.5743 17.0908 25.9619 16.8163Z" fill="#FA8D62"/>
<path d="M17.3809 15.4438C17.3809 15.2242 17.1594 15.0046 16.938 15.0046C16.7166 15.0046 16.4951 15.2242 16.4951 15.4438C16.4951 15.6634 16.7166 15.883 16.938 15.883C17.2148 15.883 17.4362 15.6634 17.3809 15.4438Z" fill="#FA8D62"/>
<path d="M22.4194 15.883C22.6409 15.883 22.8623 15.6634 22.8623 15.4438C22.8623 15.2242 22.6409 15.0046 22.4194 15.0046C22.198 15.0046 21.9766 15.2242 21.9766 15.4438C21.9766 15.6634 22.1426 15.883 22.4194 15.883Z" fill="#FA8D62"/>
<path d="M21.5333 18.628C21.3673 18.628 21.2565 18.628 21.0905 18.628C20.869 19.3966 20.6476 19.5613 19.8726 19.5613C19.5404 19.5613 19.2636 19.5613 18.9315 19.5613C18.1564 19.5613 17.935 19.3966 17.7136 18.628C17.6028 18.628 17.4368 18.628 17.2707 18.628C17.16 18.628 16.9939 18.628 16.7725 18.628C16.8278 18.9025 16.8278 19.1221 16.9385 19.2868C17.2153 19.9456 17.7136 20.3299 18.3779 20.3848C18.3779 20.3848 19.0975 20.4397 19.4297 20.4397C19.5404 20.4397 19.5958 20.4397 19.7065 20.4397C20.3708 20.4397 21.0905 20.2201 21.5887 19.726C21.7548 19.6162 21.8655 19.4515 21.9209 19.2868C22.0316 19.0672 22.0316 18.8476 22.0869 18.628C21.8101 18.628 21.6441 18.628 21.5333 18.628Z" fill="#FA8D62"/>
<path d="M17.3809 15.4438C17.3809 15.6634 17.1594 15.883 16.938 15.883C16.7166 15.883 16.4951 15.6634 16.4951 15.4438C16.4951 15.2242 16.7166 15.0046 16.938 15.0046C17.1594 15.0046 17.3809 15.1693 17.3809 15.4438Z" fill="#FA8D62"/>
<path d="M22.4194 15.883C22.198 15.883 21.9766 15.6634 21.9766 15.4438C21.9766 15.2242 22.198 15.0046 22.4194 15.0046C22.6409 15.0046 22.8623 15.2242 22.8623 15.4438C22.8623 15.7183 22.6409 15.883 22.4194 15.883Z" fill="#FA8D62"/>
</svg>
