<svg width="19" height="29" viewBox="0 0 19 29" fill="none" xmlns="http://www.w3.org/2000/svg">
<path d="M13.4782 17.5169C13.4782 17.5169 11.2827 18.4569 13.4782 17.5169C15.6736 16.5769 15.8425 12.7616 15.8425 12.7616C16.0114 12.7616 16.1803 12.7616 16.3492 12.7616C17.9254 12.7063 19.0513 11.1581 18.4883 9.66516C18.3194 9.22282 18.2632 9.11223 18.3194 8.78047C18.0943 8.33812 17.8691 7.89577 17.5876 7.50871C17.5313 7.78518 17.5313 8.11694 17.475 8.39341C16.9121 8.28282 16.4055 8.22753 15.8425 8.11694C15.8425 7.95106 15.8425 7.67459 15.8425 7.45342C15.7862 6.84519 15.5048 6.34755 15.1107 5.9052C14.9981 5.79461 14.9418 5.68402 14.9418 5.51814C14.9981 4.57815 14.21 3.74874 13.253 3.69345C12.296 3.58286 11.3953 4.30168 11.2264 5.18638C11.2264 5.29697 11.2264 5.35226 11.2264 5.46285C11.5079 5.46285 11.7894 5.46285 12.1271 5.46285C12.1271 5.40755 12.1834 5.29697 12.1834 5.24167C12.296 4.79932 12.7464 4.52286 13.253 4.57815C13.7034 4.63344 13.9848 5.0205 14.0411 5.46285C14.0411 5.9052 13.7597 6.29225 13.3093 6.40284C13.1967 6.40284 13.0278 6.40284 12.9152 6.40284C11.2264 6.40284 9.53762 6.40284 7.84881 6.40284C6.61035 6.40284 5.93482 5.8499 5.70965 4.63344C5.70965 4.63344 5.70965 4.57815 5.65335 4.57815C5.37189 4.57815 5.09042 4.57815 4.75265 4.57815C4.80895 4.85462 4.86524 5.13109 4.92154 5.40755C4.92154 5.51814 4.92154 5.62873 4.86524 5.68402C4.13342 6.29225 3.79566 7.06636 3.85195 8.00635C3.85195 8.06165 3.85195 8.11694 3.85195 8.11694C3.23272 8.22753 2.72608 8.28282 2.21944 8.39341C2.05055 7.12166 1.71279 5.8499 2.10685 4.52285C2.78237 2.4217 4.69636 0.928768 7.0044 0.928768C10.382 0.928768 13.7034 0.928768 17.081 0.928768C17.475 0.928768 17.6439 1.09465 17.6439 1.4817C17.6439 3.2511 17.5876 5.0205 17.5876 6.7346C17.5876 7.01107 17.5313 7.28754 17.5313 7.56401C17.8128 7.95106 18.0943 8.39341 18.2632 8.83576C18.2632 8.72517 18.3194 8.61458 18.3194 8.4487L18.5446 2.31111C18.5446 2.03464 18.5446 1.75817 18.5446 1.4817C18.5446 0.597006 17.9817 0.0440694 17.0247 0.0440694C13.7034 0.0440694 10.3257 0.0440694 7.0044 0.0440694C4.07713 -0.0112243 1.54391 2.14523 1.03727 5.07579C0.868386 5.96049 1.03727 6.84519 1.14985 7.72989C1.20615 8.17224 1.26244 8.55929 1.31874 9.00164C1.31874 9.11223 1.31874 9.22282 1.26244 9.3334C0.418036 10.9369 1.48762 12.7063 3.34531 12.7616C3.4579 12.7616 3.62678 12.7616 3.79566 12.7616C3.68307 14.7522 4.47119 16.3557 6.21629 17.4616C6.1037 17.5169 6.04741 17.5722 5.99112 17.6274C2.72608 19.5627 1.09356 22.3827 0.980973 26.0874C0.980973 26.8062 0.980973 27.525 0.980973 28.2438C6.77923 28.2438 12.5775 28.2438 18.3757 28.2438C19.1076 23.3227 17.1373 19.1757 13.4782 17.5169ZM3.73937 11.8216C3.12014 11.8769 2.5572 11.7663 2.16314 11.2134C1.82538 10.7157 1.82538 10.2181 2.10685 9.77575C2.44461 9.16752 3.06384 9.05693 3.73937 9.11223C3.73937 9.44399 3.73937 9.72046 3.73937 10.0522C3.51419 9.88634 3.28902 9.77575 3.06384 9.66516C2.89496 9.88634 2.72608 10.1628 2.5572 10.384C2.83867 10.5499 3.12014 10.771 3.4016 10.9369C3.79566 11.2134 3.85195 11.324 3.73937 11.8216ZM4.69636 27.3038C4.69636 25.4791 4.69636 23.7097 4.69636 21.8851C4.3586 21.8851 4.07713 21.8851 3.73937 21.8851C3.73937 23.7097 3.73937 25.4791 3.73937 27.3038C3.12014 27.3038 2.5009 27.3038 1.93797 27.3038C1.54391 23.8203 3.06384 20.2262 6.61035 18.291C7.0044 18.9545 7.39846 19.618 7.84881 20.3368C8.13028 20.0604 8.41175 19.7839 8.63692 19.5074C8.69322 19.5074 8.69322 19.5074 8.74951 19.5627C8.74951 19.6733 8.8058 19.8392 8.74951 19.9498C8.18657 21.9404 7.62364 23.9309 7.0044 25.9215C6.94811 26.1427 6.94811 26.2533 7.17329 26.3638C7.56734 26.6403 7.9614 26.9721 8.46804 27.3591C7.17329 27.3038 5.93482 27.3038 4.69636 27.3038ZM7.56734 18.0698C7.9614 18.1251 8.29916 18.1804 8.63692 18.2357C8.41175 18.4569 8.24287 18.6227 8.01769 18.8439C7.9051 18.5674 7.73622 18.3463 7.56734 18.0698ZM8.18657 25.9215C8.13028 25.8662 8.07399 25.7556 8.07399 25.645C8.58063 23.8203 9.14357 22.0509 9.65021 20.2262C9.65021 20.171 9.7628 20.1157 9.81909 20.0604C9.87539 20.1157 9.93168 20.171 9.98797 20.2262C10.4946 22.0509 11.0576 23.8203 11.5642 25.645C11.5642 25.7003 11.5642 25.8662 11.5079 25.9215C10.945 26.3638 10.382 26.8062 9.81909 27.2485C9.25615 26.7509 8.69322 26.3638 8.18657 25.9215ZM9.31245 18.8992C9.53762 18.7333 9.65021 18.6227 9.81909 18.5121C9.93168 18.6227 10.0443 18.7333 10.2131 18.8992C10.1569 19.0651 10.0443 19.231 9.81909 19.1757C9.65021 19.0651 9.48133 18.9545 9.31245 18.8992ZM16.2929 21.3321C17.6439 23.4886 17.8128 25.258 17.7002 27.3591C17.081 27.3591 16.518 27.3591 15.8988 27.3591C15.8988 26.4191 15.8988 25.5344 15.8988 24.6497C15.8988 23.765 15.8988 22.8251 15.8988 21.9404C15.5611 21.9404 15.2796 21.9404 14.9981 21.9404C14.9981 23.765 14.9981 25.5344 14.9981 27.3591C13.7597 27.3591 12.5212 27.3591 11.2264 27.3591C11.6768 27.0274 12.0145 26.6956 12.4086 26.4191C12.6338 26.2533 12.6901 26.0874 12.6338 25.8109C12.0708 23.8756 11.5079 21.8851 10.945 19.9498C10.8887 19.8392 10.945 19.6733 10.945 19.5627C11.0013 19.5627 11.0013 19.5627 11.0576 19.5074C11.339 19.7839 11.5642 20.0604 11.8457 20.3921C12.296 19.6733 12.6901 19.0098 13.0841 18.3463C14.3789 19.0098 15.4485 20.0051 16.2929 21.3321ZM11.0013 18.2357C11.2827 18.1804 11.6205 18.1251 12.0145 18.0698C11.8457 18.3463 11.6768 18.5674 11.5642 18.7886C11.3953 18.6227 11.1701 18.4016 11.0013 18.2357ZM14.8292 13.591C14.7166 15.6369 13.0278 17.1851 10.945 17.2957C9.93168 17.351 8.97469 17.351 7.9614 17.1851C6.1037 16.9086 4.69636 15.1945 4.69636 13.3698C4.69636 11.4899 4.69636 9.60987 4.69636 7.78518C4.69636 7.23224 4.92154 6.7346 5.37189 6.40284C5.82224 6.90048 6.38517 7.17695 7.0044 7.28754C7.17329 7.28754 7.39846 7.34283 7.56734 7.34283C9.25615 7.34283 10.945 7.34283 12.6338 7.34283C13.3093 7.34283 13.9285 7.23224 14.3789 6.67931C14.6604 6.95578 14.8292 7.34283 14.8292 7.72989C14.8855 9.66516 14.9981 11.6557 14.8292 13.591ZM16.1803 10.9369C16.4618 10.771 16.6869 10.6052 16.9684 10.4393C16.9684 10.4393 16.9684 10.4393 17.0247 10.384C16.8558 10.1628 16.6869 9.88634 16.518 9.66516C16.2929 9.83105 16.0677 9.94163 15.8425 10.1075C15.8425 9.77575 15.8425 9.49928 15.8425 9.16752C16.4618 9.11223 17.0247 9.16752 17.4187 9.72046C17.7565 10.1628 17.8128 10.7157 17.5313 11.2134C17.1936 11.8769 16.5743 11.9875 15.8988 11.9322C15.7299 11.3793 15.7862 11.2134 16.1803 10.9369Z" fill="#3D626F"/>
<path d="M7.45375 9.55458C7.45375 9.3334 7.22874 9.11223 7.00373 9.11223C6.77872 9.11223 6.55371 9.3334 6.55371 9.55458C6.55371 9.77575 6.77872 9.99693 7.00373 9.99693C7.28499 9.99693 7.51 9.77575 7.45375 9.55458Z" fill="#3D626F"/>
<path d="M12.577 9.99693C12.802 9.99693 13.027 9.77575 13.027 9.55458C13.027 9.3334 12.802 9.11223 12.577 9.11223C12.352 9.11223 12.127 9.3334 12.127 9.55458C12.127 9.77575 12.2957 9.99693 12.577 9.99693Z" fill="#3D626F"/>
<path d="M11.6772 12.7616C11.5083 12.7616 11.3957 12.7616 11.2268 12.7616C11.0017 13.5357 10.7765 13.7016 9.98839 13.7016C9.65062 13.7016 9.36916 13.7016 9.03139 13.7016C8.24328 13.7016 8.01811 13.5357 7.79293 12.7616C7.68034 12.7616 7.51146 12.7616 7.34258 12.7616C7.22999 12.7616 7.06111 12.7616 6.83594 12.7616C6.89223 13.0381 6.89223 13.2593 7.00482 13.4251C7.28629 14.0887 7.79293 14.4757 8.46846 14.531C8.46846 14.531 9.20027 14.5863 9.53804 14.5863C9.65062 14.5863 9.70692 14.5863 9.8195 14.5863C10.495 14.5863 11.2268 14.3651 11.7335 13.8675C11.9024 13.7569 12.015 13.591 12.0713 13.4251C12.1838 13.204 12.1838 12.9828 12.2401 12.7616C11.9587 12.7616 11.7898 12.7616 11.6772 12.7616Z" fill="#3D626F"/>
<path d="M7.45375 9.55458C7.45375 9.77575 7.22874 9.99693 7.00373 9.99693C6.77872 9.99693 6.55371 9.77575 6.55371 9.55458C6.55371 9.3334 6.77872 9.11223 7.00373 9.11223C7.22874 9.11223 7.45375 9.27811 7.45375 9.55458Z" fill="#3D626F"/>
<path d="M12.577 9.99693C12.352 9.99693 12.127 9.77575 12.127 9.55458C12.127 9.3334 12.352 9.11223 12.577 9.11223C12.802 9.11223 13.027 9.3334 13.027 9.55458C13.027 9.83104 12.802 9.99693 12.577 9.99693Z" fill="#3D626F"/>
</svg>
